<svg xmlns="http://www.w3.org/2000/svg" xmlns:xlink="http://www.w3.org/1999/xlink" width="1920" zoomAndPan="magnify" viewBox="0 0 1440 809.999993" height="1080" preserveAspectRatio="xMidYMid meet" version="1.0"><defs><clipPath id="e09f9625f2"><path d="M 563.46875 261 L 869 261 L 869 567 L 563.46875 567 Z M 563.46875 261 " clip-rule="nonzero"/></clipPath><clipPath id="23ed45877d"><path d="M 625 243 L 876.21875 243 L 876.21875 502 L 625 502 Z M 625 243 " clip-rule="nonzero"/></clipPath></defs><rect x="-144" width="1728" fill="#ffffff" y="-80.999999" height="971.999992" fill-opacity="1"/><rect x="-144" width="1728" fill="#ffffff" y="-80.999999" height="971.999992" fill-opacity="1"/><rect x="-144" width="1728" fill="#ffffff" y="-80.999999" height="971.999992" fill-opacity="1"/><g clip-path="url(#e09f9625f2)"><path fill="#000000" d="M 716.21875 261.070312 C 632.019531 261.070312 563.46875 329.6875 563.46875 413.96875 C 563.46875 498.246094 632.019531 566.867188 716.21875 566.867188 C 800.417969 566.867188 868.96875 498.246094 868.96875 413.96875 C 868.96875 377.53125 856.652344 344.949219 835.734375 318.253906 L 821.351562 335.316406 C 839.585938 357.792969 846.722656 382.742188 846.722656 413.96875 C 846.722656 486.191406 788.371094 544.566406 716.214844 544.566406 C 644.0625 544.566406 585.710938 486.191406 585.710938 413.96875 C 585.710938 341.742188 644.0625 283.332031 716.214844 283.332031 C 739.082031 283.332031 756.183594 286.625 774.851562 296.945312 L 788.515625 278.984375 C 766.65625 266.898438 742.898438 261.066406 716.21875 261.066406 Z M 716.21875 261.070312 " fill-opacity="1" fill-rule="evenodd"/></g><g clip-path="url(#23ed45877d)"><path fill="#000000" d="M 659.683594 393.859375 C 665.84375 393.859375 670.503906 398.917969 673.660156 409.035156 C 679.980469 428.007812 684.480469 437.492188 687.164062 437.492188 C 689.21875 437.492188 691.351562 435.910156 693.5625 432.75 C 737.941406 361.609375 779.007812 304.0625 816.753906 260.113281 C 826.546875 248.730469 842.101562 243.039062 863.425781 243.039062 C 868.480469 243.039062 871.875 243.511719 873.613281 244.460938 C 875.351562 245.410156 876.21875 246.597656 876.21875 248.019531 C 876.21875 250.234375 873.613281 254.578125 868.402344 261.0625 C 807.4375 334.417969 750.894531 411.882812 698.773438 493.457031 C 695.140625 499.148438 687.71875 501.996094 676.503906 501.996094 C 665.132812 501.996094 658.421875 501.519531 656.367188 500.574219 C 650.996094 498.203125 644.679688 486.105469 637.414062 464.289062 C 629.203125 440.101562 625.09375 424.921875 625.09375 418.757812 C 625.09375 412.117188 630.625 405.714844 641.679688 399.550781 C 648.46875 395.753906 654.472656 393.859375 659.683594 393.859375 " fill-opacity="1" fill-rule="nonzero"/></g></svg>