<svg xmlns="http://www.w3.org/2000/svg" xmlns:xlink="http://www.w3.org/1999/xlink" width="1920" zoomAndPan="magnify" viewBox="0 0 1440 809.999993" height="1080" preserveAspectRatio="xMidYMid meet" version="1.0"><path fill="#6aace8" d="M 819.367188 404.9375 C 819.367188 406.566406 819.328125 408.195312 819.25 409.828125 C 819.167969 411.457031 819.046875 413.082031 818.890625 414.703125 C 818.730469 416.328125 818.53125 417.945312 818.289062 419.558594 C 818.050781 421.171875 817.773438 422.78125 817.457031 424.378906 C 817.136719 425.980469 816.78125 427.570312 816.382812 429.152344 C 815.988281 430.734375 815.554688 432.304688 815.082031 433.867188 C 814.609375 435.425781 814.097656 436.976562 813.546875 438.511719 C 813 440.046875 812.414062 441.566406 811.789062 443.074219 C 811.164062 444.582031 810.503906 446.074219 809.808594 447.546875 C 809.113281 449.019531 808.378906 450.476562 807.609375 451.917969 C 806.84375 453.355469 806.039062 454.773438 805.203125 456.171875 C 804.363281 457.570312 803.492188 458.949219 802.585938 460.304688 C 801.683594 461.660156 800.742188 462.996094 799.773438 464.304688 C 798.800781 465.613281 797.800781 466.898438 796.765625 468.160156 C 795.730469 469.421875 794.667969 470.65625 793.574219 471.863281 C 792.480469 473.074219 791.355469 474.253906 790.203125 475.40625 C 789.050781 476.5625 787.871094 477.683594 786.664062 478.78125 C 785.457031 479.875 784.222656 480.941406 782.964844 481.976562 C 781.703125 483.011719 780.417969 484.011719 779.109375 484.984375 C 777.800781 485.957031 776.46875 486.894531 775.113281 487.800781 C 773.757812 488.707031 772.382812 489.582031 770.984375 490.417969 C 769.585938 491.257812 768.171875 492.0625 766.734375 492.828125 C 765.296875 493.597656 763.839844 494.332031 762.367188 495.027344 C 760.894531 495.726562 759.40625 496.386719 757.898438 497.011719 C 756.394531 497.636719 754.875 498.222656 753.339844 498.773438 C 751.804688 499.320312 750.257812 499.832031 748.699219 500.304688 C 747.140625 500.78125 745.570312 501.214844 743.988281 501.609375 C 742.40625 502.007812 740.816406 502.363281 739.21875 502.683594 C 737.621094 503 736.015625 503.28125 734.402344 503.519531 C 732.792969 503.757812 731.175781 503.957031 729.554688 504.117188 C 727.933594 504.277344 726.308594 504.398438 724.679688 504.476562 C 723.050781 504.558594 721.421875 504.597656 719.792969 504.597656 C 718.164062 504.597656 716.535156 504.558594 714.90625 504.476562 C 713.28125 504.398438 711.65625 504.277344 710.035156 504.117188 C 708.410156 503.957031 706.792969 503.757812 705.183594 503.519531 C 703.570312 503.28125 701.964844 503 700.367188 502.683594 C 698.769531 502.363281 697.179688 502.007812 695.597656 501.609375 C 694.019531 501.214844 692.449219 500.78125 690.886719 500.304688 C 689.328125 499.832031 687.78125 499.320312 686.246094 498.773438 C 684.714844 498.222656 683.195312 497.636719 681.6875 497.011719 C 680.183594 496.386719 678.691406 495.726562 677.21875 495.027344 C 675.746094 494.332031 674.292969 493.597656 672.855469 492.828125 C 671.417969 492.0625 670 491.257812 668.601562 490.417969 C 667.203125 489.582031 665.828125 488.707031 664.472656 487.800781 C 663.117188 486.894531 661.785156 485.957031 660.476562 484.984375 C 659.167969 484.011719 657.882812 483.011719 656.625 481.976562 C 655.363281 480.941406 654.128906 479.875 652.921875 478.78125 C 651.714844 477.683594 650.535156 476.5625 649.382812 475.40625 C 648.230469 474.253906 647.109375 473.074219 646.011719 471.863281 C 644.917969 470.65625 643.855469 469.421875 642.820312 468.160156 C 641.789062 466.898438 640.785156 465.613281 639.8125 464.304688 C 638.84375 462.996094 637.90625 461.660156 637 460.304688 C 636.09375 458.949219 635.222656 457.570312 634.386719 456.171875 C 633.546875 454.773438 632.746094 453.355469 631.976562 451.917969 C 631.207031 450.476562 630.476562 449.019531 629.777344 447.546875 C 629.082031 446.074219 628.421875 444.582031 627.796875 443.074219 C 627.175781 441.566406 626.589844 440.046875 626.039062 438.511719 C 625.492188 436.976562 624.980469 435.425781 624.507812 433.867188 C 624.035156 432.304688 623.597656 430.734375 623.203125 429.152344 C 622.808594 427.570312 622.449219 425.980469 622.132812 424.378906 C 621.8125 422.78125 621.535156 421.171875 621.296875 419.558594 C 621.058594 417.945312 620.859375 416.328125 620.699219 414.703125 C 620.539062 413.082031 620.417969 411.457031 620.339844 409.828125 C 620.257812 408.195312 620.21875 406.566406 620.21875 404.9375 C 620.21875 403.304688 620.257812 401.675781 620.339844 400.046875 C 620.417969 398.417969 620.539062 396.789062 620.699219 395.167969 C 620.859375 393.542969 621.058594 391.925781 621.296875 390.3125 C 621.535156 388.699219 621.8125 387.09375 622.132812 385.492188 C 622.449219 383.894531 622.808594 382.300781 623.203125 380.71875 C 623.597656 379.136719 624.035156 377.566406 624.507812 376.003906 C 624.980469 374.445312 625.492188 372.898438 626.039062 371.359375 C 626.589844 369.824219 627.175781 368.304688 627.796875 366.796875 C 628.421875 365.289062 629.082031 363.800781 629.777344 362.324219 C 630.476562 360.851562 631.207031 359.394531 631.976562 357.957031 C 632.746094 356.515625 633.546875 355.097656 634.386719 353.699219 C 635.222656 352.300781 636.09375 350.921875 637 349.566406 C 637.90625 348.210938 638.84375 346.878906 639.8125 345.566406 C 640.785156 344.257812 641.789062 342.972656 642.820312 341.710938 C 643.855469 340.449219 644.917969 339.214844 646.011719 338.007812 C 647.109375 336.796875 648.230469 335.617188 649.382812 334.464844 C 650.535156 333.3125 651.714844 332.1875 652.921875 331.089844 C 654.128906 329.996094 655.363281 328.929688 656.625 327.894531 C 657.882812 326.863281 659.167969 325.859375 660.476562 324.886719 C 661.785156 323.914062 663.117188 322.976562 664.472656 322.070312 C 665.828125 321.164062 667.203125 320.292969 668.601562 319.453125 C 670 318.613281 671.417969 317.8125 672.855469 317.042969 C 674.292969 316.273438 675.746094 315.539062 677.21875 314.84375 C 678.691406 314.144531 680.183594 313.484375 681.6875 312.859375 C 683.195312 312.238281 684.714844 311.648438 686.246094 311.101562 C 687.78125 310.550781 689.328125 310.039062 690.886719 309.566406 C 692.449219 309.09375 694.019531 308.65625 695.597656 308.261719 C 697.179688 307.863281 698.769531 307.507812 700.367188 307.1875 C 701.964844 306.871094 703.570312 306.59375 705.183594 306.351562 C 706.792969 306.113281 708.410156 305.914062 710.035156 305.753906 C 711.65625 305.59375 713.28125 305.472656 714.90625 305.394531 C 716.535156 305.3125 718.164062 305.273438 719.792969 305.273438 C 721.421875 305.273438 723.050781 305.3125 724.679688 305.394531 C 726.308594 305.472656 727.933594 305.59375 729.554688 305.753906 C 731.175781 305.914062 732.792969 306.113281 734.402344 306.351562 C 736.015625 306.59375 737.621094 306.871094 739.21875 307.1875 C 740.816406 307.507812 742.40625 307.863281 743.988281 308.261719 C 745.570312 308.65625 747.140625 309.09375 748.699219 309.566406 C 750.257812 310.039062 751.804688 310.550781 753.339844 311.101562 C 754.875 311.648438 756.394531 312.238281 757.898438 312.859375 C 759.40625 313.484375 760.894531 314.144531 762.367188 314.84375 C 763.839844 315.539062 765.296875 316.273438 766.734375 317.042969 C 768.171875 317.8125 769.585938 318.613281 770.984375 319.453125 C 772.382812 320.292969 773.757812 321.164062 775.113281 322.070312 C 776.46875 322.976562 777.800781 323.914062 779.109375 324.886719 C 780.417969 325.859375 781.703125 326.863281 782.964844 327.894531 C 784.222656 328.929688 785.457031 329.996094 786.664062 331.089844 C 787.871094 332.1875 789.050781 333.3125 790.203125 334.464844 C 791.355469 335.617188 792.480469 336.796875 793.574219 338.007812 C 794.667969 339.214844 795.730469 340.449219 796.765625 341.710938 C 797.800781 342.972656 798.800781 344.257812 799.773438 345.566406 C 800.742188 346.878906 801.683594 348.210938 802.585938 349.566406 C 803.492188 350.921875 804.363281 352.300781 805.203125 353.699219 C 806.039062 355.097656 806.84375 356.515625 807.609375 357.957031 C 808.378906 359.394531 809.113281 360.851562 809.808594 362.324219 C 810.503906 363.800781 811.164062 365.289062 811.789062 366.796875 C 812.414062 368.304688 813 369.824219 813.546875 371.359375 C 814.097656 372.898438 814.609375 374.445312 815.082031 376.003906 C 815.554688 377.566406 815.988281 379.136719 816.382812 380.71875 C 816.78125 382.300781 817.136719 383.894531 817.457031 385.492188 C 817.773438 387.09375 818.050781 388.699219 818.289062 390.3125 C 818.53125 391.925781 818.730469 393.542969 818.890625 395.167969 C 819.046875 396.789062 819.167969 398.417969 819.25 400.046875 C 819.328125 401.675781 819.367188 403.304688 819.367188 404.9375 Z M 819.367188 404.9375 " fill-opacity="1" fill-rule="nonzero"/><path fill="#bcd7ff" d="M 658.820312 465.960938 C 657.542969 464.683594 657.542969 462.636719 658.820312 461.484375 C 660.101562 460.203125 662.144531 460.203125 663.296875 461.484375 C 690.265625 488.476562 731.425781 491.804688 761.71875 472.871094 C 763.253906 471.972656 765.171875 472.359375 766.066406 473.894531 C 766.960938 475.429688 766.578125 477.347656 765.042969 478.242188 C 732.320312 498.585938 688.09375 495.128906 658.820312 465.960938 Z M 771.433594 470.054688 C 770.285156 468.777344 770.410156 466.730469 771.816406 465.578125 C 773.351562 464.296875 774.886719 462.890625 776.292969 461.355469 C 777.570312 460.078125 779.613281 460.078125 780.765625 461.355469 C 782.042969 462.636719 782.042969 464.683594 780.765625 465.832031 C 779.230469 467.367188 777.570312 468.902344 775.910156 470.3125 C 774.503906 471.589844 772.585938 471.460938 771.433594 470.054688 Z M 771.433594 470.054688 " fill-opacity="1" fill-rule="nonzero"/><path fill="#bcd7ff" d="M 658.820312 348.386719 C 657.542969 347.109375 657.542969 345.0625 658.820312 343.910156 C 660.355469 342.375 662.015625 340.839844 663.679688 339.433594 C 664.957031 338.28125 667.003906 338.410156 668.152344 339.816406 C 669.304688 341.222656 669.175781 343.144531 667.769531 344.292969 C 666.234375 345.574219 664.703125 346.980469 663.296875 348.515625 C 662.144531 349.667969 660.101562 349.667969 658.820312 348.386719 Z M 776.292969 348.386719 C 761.207031 333.292969 741.140625 324.976562 719.792969 324.976562 C 704.839844 324.976562 690.394531 329.070312 677.738281 336.875 C 676.207031 337.769531 674.289062 337.386719 673.394531 335.851562 C 672.5 334.316406 672.882812 332.398438 674.417969 331.5 C 687.964844 323.058594 703.6875 318.578125 719.792969 318.578125 C 742.800781 318.578125 764.53125 327.535156 780.765625 343.78125 C 782.042969 345.0625 782.042969 347.109375 780.765625 348.261719 C 779.488281 349.667969 777.441406 349.667969 776.292969 348.386719 Z M 776.292969 348.386719 " fill-opacity="1" fill-rule="nonzero"/><path fill="#0cbf84" d="M 693.84375 452.398438 L 658.820312 417.347656 C 654.347656 412.867188 654.347656 405.574219 658.820312 400.96875 C 663.296875 396.492188 670.582031 396.492188 675.183594 400.96875 L 702.027344 427.835938 L 764.402344 365.402344 C 768.878906 360.925781 776.164062 360.925781 780.765625 365.402344 C 785.238281 369.882812 785.238281 377.175781 780.765625 381.78125 L 710.335938 452.273438 C 705.734375 457.003906 698.445312 457.003906 693.84375 452.398438 Z M 693.84375 452.398438 " fill-opacity="1" fill-rule="nonzero"/><path fill="#000000" d="M 626.226562 370.394531 C 624.566406 369.882812 622.773438 370.777344 622.136719 372.441406 C 621.625 374.105469 622.519531 375.894531 624.179688 376.535156 C 625.972656 377.046875 627.632812 376.152344 628.273438 374.488281 C 628.78125 372.695312 627.886719 370.90625 626.226562 370.394531 Z M 626.226562 370.394531 " fill-opacity="1" fill-rule="nonzero"/><path fill="#000000" d="M 719.792969 301.949219 C 679.144531 302.074219 643.867188 325.617188 627.121094 360.160156 C 626.355469 361.695312 626.992188 363.613281 628.65625 364.378906 C 630.1875 365.148438 632.105469 364.378906 632.875 362.84375 C 648.851562 329.710938 682.980469 308.21875 719.792969 308.21875 C 773.609375 308.21875 816.171875 351.714844 816.171875 404.679688 C 816.171875 417.21875 813.746094 429.371094 809.140625 440.886719 C 808.503906 442.550781 809.269531 444.339844 810.933594 445.109375 C 812.59375 445.746094 814.382812 444.980469 815.023438 443.316406 C 820.007812 431.035156 822.5625 417.984375 822.5625 404.679688 C 822.691406 348.386719 776.804688 302.074219 719.792969 301.949219 Z M 719.792969 301.949219 " fill-opacity="1" fill-rule="nonzero"/><path fill="#000000" d="M 805.050781 456.621094 C 806.585938 457.515625 808.632812 456.878906 809.398438 455.46875 C 810.292969 453.933594 809.652344 452.015625 808.246094 451.121094 C 806.714844 450.226562 804.667969 450.863281 803.902344 452.273438 C 803.007812 453.933594 803.519531 455.855469 805.050781 456.621094 Z M 805.050781 456.621094 " fill-opacity="1" fill-rule="nonzero"/><path fill="#000000" d="M 618.8125 385.234375 C 617.535156 391.628906 616.894531 398.285156 616.894531 404.9375 C 616.894531 461.738281 662.785156 507.796875 719.664062 507.796875 C 752.515625 507.796875 782.8125 492.1875 802.113281 466.472656 C 803.136719 465.066406 802.878906 463.019531 801.472656 461.996094 C 800.066406 460.972656 798.023438 461.226562 797 462.636719 C 778.59375 487.328125 750.472656 501.398438 719.664062 501.398438 C 667.003906 501.398438 623.285156 458.667969 623.285156 404.9375 C 623.285156 398.667969 623.925781 392.527344 625.074219 386.386719 C 625.460938 384.722656 624.308594 382.929688 622.519531 382.675781 C 620.859375 382.292969 619.195312 383.441406 618.8125 385.234375 Z M 618.8125 385.234375 " fill-opacity="1" fill-rule="nonzero"/><path fill="#000000" d="M 736.15625 421.953125 C 734.875 423.230469 734.875 425.277344 736.15625 426.429688 C 737.304688 427.582031 739.476562 427.582031 740.628906 426.429688 L 782.9375 384.082031 C 788.691406 378.324219 788.691406 368.984375 782.9375 363.230469 C 777.1875 357.472656 767.855469 357.472656 762.101562 363.230469 L 702.027344 423.359375 L 677.484375 398.796875 C 671.730469 393.039062 662.402344 393.039062 656.648438 398.796875 C 650.894531 404.550781 650.894531 413.890625 656.648438 419.648438 L 691.671875 454.703125 C 697.550781 460.589844 706.882812 460.460938 712.507812 454.703125 L 722.605469 444.597656 C 723.882812 443.316406 723.757812 441.269531 722.605469 440.117188 C 721.457031 438.96875 719.28125 438.96875 718.132812 440.117188 L 708.035156 450.226562 C 704.710938 453.550781 699.46875 453.421875 696.273438 450.226562 L 661.121094 415.171875 C 657.800781 411.84375 657.925781 406.597656 661.121094 403.402344 C 664.316406 400.074219 669.6875 400.074219 672.882812 403.402344 L 699.726562 430.265625 C 700.875 431.417969 703.046875 431.417969 704.199219 430.265625 L 766.703125 367.835938 C 770.027344 364.507812 775.269531 364.507812 778.464844 367.835938 C 781.660156 371.03125 781.789062 376.277344 778.464844 379.605469 Z M 736.15625 421.953125 " fill-opacity="1" fill-rule="nonzero"/><path fill="#000000" d="M 727.078125 431.035156 C 725.800781 432.3125 725.800781 434.359375 727.078125 435.511719 C 728.230469 436.664062 730.273438 436.792969 731.554688 435.511719 C 732.832031 434.234375 732.703125 432.1875 731.554688 431.035156 C 730.402344 429.882812 728.359375 429.882812 727.078125 431.035156 Z M 727.078125 431.035156 " fill-opacity="1" fill-rule="nonzero"/><path fill="#f0c718" d="M 719.792969 246.9375 L 726.953125 258.449219 L 740.246094 261.777344 L 731.425781 272.140625 L 732.449219 285.957031 L 719.792969 280.582031 L 707.140625 285.957031 L 708.160156 272.140625 L 699.339844 261.777344 L 712.636719 258.449219 Z M 719.792969 246.9375 " fill-opacity="1" fill-rule="nonzero"/><path fill="#f0c718" d="M 719.792969 523.917969 L 726.953125 535.558594 L 740.246094 538.882812 L 731.425781 549.121094 L 732.449219 562.9375 L 719.792969 557.5625 L 707.140625 562.9375 L 708.160156 549.121094 L 699.339844 538.882812 L 712.636719 535.558594 Z M 719.792969 523.917969 " fill-opacity="1" fill-rule="nonzero"/><path fill="#f0c718" d="M 788.5625 266.253906 L 795.722656 277.769531 L 809.015625 281.09375 L 800.195312 291.457031 L 801.21875 305.273438 L 788.5625 299.902344 L 775.910156 305.273438 L 776.929688 291.457031 L 768.109375 281.09375 L 781.40625 277.769531 Z M 788.5625 266.253906 " fill-opacity="1" fill-rule="nonzero"/><path fill="#f0c718" d="M 841.992188 318.578125 L 849.152344 330.09375 L 862.445312 333.421875 L 853.625 343.78125 L 854.648438 357.472656 L 841.992188 352.097656 L 829.339844 357.472656 L 830.363281 343.78125 L 821.542969 333.421875 L 834.835938 330.09375 Z M 841.992188 318.578125 " fill-opacity="1" fill-rule="nonzero"/><path fill="#f0c718" d="M 856.566406 388.175781 L 863.722656 399.820312 L 877.015625 403.144531 L 868.195312 413.378906 L 869.21875 427.195312 L 856.566406 421.824219 L 843.910156 427.195312 L 844.933594 413.378906 L 836.113281 403.144531 L 849.40625 399.820312 Z M 856.566406 388.175781 " fill-opacity="1" fill-rule="nonzero"/><path fill="#f0c718" d="M 841.738281 455.855469 L 848.894531 467.367188 L 862.191406 470.695312 L 853.242188 481.058594 L 854.390625 494.875 L 841.738281 489.5 L 828.957031 494.875 L 830.105469 481.058594 L 821.15625 470.695312 L 834.453125 467.367188 Z M 841.738281 455.855469 " fill-opacity="1" fill-rule="nonzero"/><path fill="#f0c718" d="M 789.457031 509.332031 L 796.617188 520.84375 L 809.910156 524.300781 L 800.960938 534.535156 L 802.113281 548.351562 L 789.457031 542.976562 L 776.804688 548.351562 L 777.824219 534.535156 L 768.878906 524.300781 L 782.300781 520.84375 Z M 789.457031 509.332031 " fill-opacity="1" fill-rule="nonzero"/><path fill="#f0c718" d="M 651.023438 266.253906 L 643.867188 277.769531 L 630.574219 281.09375 L 639.519531 291.457031 L 638.371094 305.273438 L 651.023438 299.902344 L 663.679688 305.273438 L 662.65625 291.457031 L 671.476562 281.09375 L 658.183594 277.769531 Z M 651.023438 266.253906 " fill-opacity="1" fill-rule="nonzero"/><path fill="#f0c718" d="M 597.59375 318.578125 L 590.4375 330.09375 L 577.140625 333.421875 L 585.960938 343.78125 L 584.9375 357.472656 L 597.59375 352.097656 L 610.25 357.472656 L 609.226562 343.78125 L 618.046875 333.421875 L 604.753906 330.09375 Z M 597.59375 318.578125 " fill-opacity="1" fill-rule="nonzero"/><path fill="#f0c718" d="M 583.023438 388.175781 L 575.863281 399.820312 L 562.570312 403.144531 L 571.390625 413.378906 L 570.367188 427.195312 L 583.023438 421.824219 L 595.675781 427.195312 L 594.652344 413.378906 L 603.472656 403.144531 L 590.179688 399.820312 Z M 583.023438 388.175781 " fill-opacity="1" fill-rule="nonzero"/><path fill="#f0c718" d="M 597.976562 455.855469 L 590.691406 467.367188 L 577.398438 470.695312 L 586.34375 481.058594 L 585.324219 494.875 L 597.976562 489.5 L 610.632812 494.875 L 609.480469 481.058594 L 618.429688 470.695312 L 605.136719 467.367188 Z M 597.976562 455.855469 " fill-opacity="1" fill-rule="nonzero"/><path fill="#f0c718" d="M 650.128906 509.332031 L 642.972656 520.84375 L 629.675781 524.300781 L 638.625 534.535156 L 637.476562 548.351562 L 650.128906 542.976562 L 662.785156 548.351562 L 661.761719 534.535156 L 670.710938 524.300781 L 657.289062 520.84375 Z M 650.128906 509.332031 " fill-opacity="1" fill-rule="nonzero"/><path fill="#000000" d="M 696.914062 263.949219 L 704.964844 273.289062 L 703.945312 285.828125 C 703.6875 288.257812 706.246094 289.921875 708.417969 289.027344 L 719.792969 284.164062 L 731.167969 289.027344 C 733.34375 289.921875 735.773438 288.257812 735.644531 285.828125 L 734.621094 273.289062 L 742.675781 263.949219 C 744.207031 262.160156 743.3125 259.34375 741.011719 258.707031 L 728.996094 255.636719 L 722.476562 245.144531 C 721.199219 243.097656 718.257812 243.097656 717.109375 245.144531 L 710.589844 255.636719 L 698.574219 258.707031 C 696.273438 259.34375 695.378906 262.160156 696.914062 263.949219 Z M 713.402344 261.519531 C 714.167969 261.265625 714.9375 260.753906 715.320312 260.113281 L 719.792969 252.949219 L 724.265625 260.113281 C 724.652344 260.878906 725.417969 261.265625 726.183594 261.519531 L 734.492188 263.566406 L 728.996094 269.964844 C 728.484375 270.605469 728.230469 271.5 728.230469 272.265625 L 728.867188 280.839844 L 721.070312 277.511719 C 720.304688 277.128906 719.410156 277.128906 718.515625 277.511719 L 710.71875 280.839844 L 711.355469 272.265625 C 711.484375 271.371094 711.101562 270.605469 710.589844 269.964844 L 705.09375 263.566406 Z M 713.402344 261.519531 " fill-opacity="1" fill-rule="nonzero"/><path fill="#000000" d="M 741.011719 535.6875 L 728.996094 532.617188 L 722.476562 522.125 C 721.199219 520.078125 718.257812 520.078125 717.109375 522.125 L 710.589844 532.617188 L 698.574219 535.6875 C 696.273438 536.324219 695.378906 539.140625 696.914062 540.929688 L 704.964844 550.269531 L 703.945312 562.808594 C 703.816406 565.109375 706.117188 566.902344 708.417969 566.007812 L 719.792969 561.144531 L 731.167969 566.007812 C 733.34375 566.902344 735.773438 565.238281 735.644531 562.808594 L 734.621094 550.269531 L 742.675781 540.929688 C 744.207031 539.140625 743.3125 536.324219 741.011719 535.6875 Z M 728.996094 547.074219 C 728.484375 547.710938 728.230469 548.609375 728.230469 549.375 L 728.867188 557.945312 L 721.070312 554.621094 C 720.304688 554.238281 719.28125 554.238281 718.515625 554.621094 L 710.71875 557.945312 L 711.355469 549.375 C 711.484375 548.480469 711.101562 547.710938 710.589844 547.074219 L 705.09375 540.675781 L 713.402344 538.628906 C 714.167969 538.371094 714.9375 537.859375 715.320312 537.222656 L 719.792969 530.058594 L 724.265625 537.222656 C 724.652344 537.988281 725.417969 538.371094 726.183594 538.628906 L 734.492188 540.675781 Z M 728.996094 547.074219 " fill-opacity="1" fill-rule="nonzero"/><path fill="#000000" d="M 767.34375 278.023438 C 765.042969 278.664062 764.148438 281.476562 765.683594 283.269531 L 773.734375 292.609375 L 772.710938 305.019531 C 772.585938 307.449219 775.011719 309.113281 777.1875 308.21875 L 788.5625 303.355469 L 799.9375 308.21875 C 802.113281 309.113281 804.539062 307.449219 804.414062 305.019531 L 803.390625 292.609375 L 811.441406 283.269531 C 812.976562 281.476562 812.082031 278.664062 809.78125 278.023438 L 797.765625 274.953125 L 791.246094 264.460938 C 789.96875 262.414062 787.027344 262.414062 785.878906 264.460938 L 779.359375 274.953125 Z M 784.089844 279.429688 L 788.5625 272.265625 L 793.035156 279.429688 C 793.421875 280.199219 794.1875 280.582031 794.953125 280.839844 L 803.261719 282.886719 L 797.765625 289.28125 C 797.253906 289.921875 796.871094 290.816406 797 291.585938 L 797.636719 300.15625 L 789.839844 296.832031 C 789.074219 296.445312 788.179688 296.445312 787.285156 296.832031 L 779.488281 300.15625 L 780.125 291.585938 C 780.253906 290.691406 779.871094 289.921875 779.359375 289.28125 L 773.863281 282.886719 L 782.171875 280.839844 C 782.9375 280.710938 783.707031 280.199219 784.089844 279.429688 Z M 784.089844 279.429688 " fill-opacity="1" fill-rule="nonzero"/><path fill="#000000" d="M 839.308594 316.789062 L 832.789062 327.277344 L 820.773438 330.351562 C 818.472656 330.863281 817.578125 333.675781 819.113281 335.59375 L 827.164062 344.804688 L 826.144531 357.214844 C 826.015625 359.519531 828.1875 361.308594 830.617188 360.414062 L 841.992188 355.554688 L 853.371094 360.414062 C 855.542969 361.308594 857.972656 359.648438 857.84375 357.214844 L 856.820312 344.804688 L 864.875 335.46875 C 866.40625 333.675781 865.511719 330.863281 863.210938 330.222656 L 851.195312 327.152344 L 844.675781 316.660156 C 843.398438 314.871094 840.585938 314.871094 839.308594 316.789062 Z M 846.46875 331.757812 C 846.851562 332.523438 847.617188 332.910156 848.382812 333.164062 L 856.691406 335.210938 L 851.195312 341.609375 C 850.683594 342.246094 850.300781 343.144531 850.429688 343.910156 L 851.070312 352.484375 L 843.273438 349.15625 C 842.503906 348.773438 841.609375 348.773438 840.84375 349.15625 L 833.046875 352.484375 L 833.683594 343.910156 C 833.8125 343.015625 833.429688 342.246094 832.917969 341.609375 L 827.421875 335.210938 L 835.730469 333.164062 C 836.496094 332.910156 837.265625 332.398438 837.648438 331.757812 L 842.121094 324.59375 Z M 846.46875 331.757812 " fill-opacity="1" fill-rule="nonzero"/><path fill="#000000" d="M 877.785156 399.945312 L 865.769531 396.875 L 859.25 386.386719 C 857.972656 384.339844 855.03125 384.339844 853.882812 386.386719 L 847.363281 396.875 L 835.347656 399.945312 C 833.046875 400.457031 832.152344 403.273438 833.683594 405.191406 L 841.738281 414.402344 L 840.714844 426.941406 C 840.585938 429.242188 842.886719 431.035156 845.1875 430.140625 L 856.566406 425.277344 L 867.941406 430.140625 C 870.113281 431.035156 872.542969 429.371094 872.414062 426.941406 L 871.394531 414.402344 L 879.445312 405.191406 C 881.109375 403.402344 880.085938 400.585938 877.785156 399.945312 Z M 865.769531 411.332031 C 865.257812 411.972656 864.875 412.867188 865 413.636719 L 865.640625 422.207031 L 857.84375 418.882812 C 857.078125 418.496094 856.183594 418.496094 855.414062 418.882812 L 847.617188 422.207031 L 848.257812 413.636719 C 848.382812 412.738281 848 411.972656 847.488281 411.332031 L 841.992188 404.9375 L 850.300781 402.890625 C 851.070312 402.632812 851.835938 402.121094 852.21875 401.480469 L 856.691406 394.316406 L 861.167969 401.480469 C 861.679688 402.25 862.316406 402.632812 863.085938 402.890625 L 871.394531 404.9375 Z M 865.769531 411.332031 " fill-opacity="1" fill-rule="nonzero"/><path fill="#000000" d="M 862.957031 467.625 L 850.941406 464.554688 L 844.421875 454.0625 C 843.144531 452.015625 840.203125 452.015625 839.054688 454.0625 L 832.535156 464.554688 L 820.519531 467.625 C 818.21875 468.265625 817.324219 470.949219 818.855469 472.871094 L 826.910156 482.210938 L 825.886719 494.746094 C 825.632812 497.304688 828.316406 498.839844 830.363281 497.945312 L 841.738281 493.082031 L 853.113281 497.945312 C 855.285156 498.839844 857.714844 497.175781 857.585938 494.746094 L 856.566406 482.210938 L 864.617188 472.871094 C 866.152344 471.078125 865.257812 468.265625 862.957031 467.625 Z M 850.8125 478.882812 C 850.300781 479.523438 850.046875 480.289062 850.046875 481.1875 L 850.683594 489.757812 L 842.886719 486.429688 C 842.121094 486.046875 841.226562 486.046875 840.332031 486.429688 L 832.535156 489.757812 L 833.171875 481.1875 C 833.300781 480.289062 832.917969 479.523438 832.40625 478.882812 L 826.910156 472.484375 L 835.21875 470.4375 C 835.984375 470.183594 836.753906 469.671875 837.136719 469.03125 L 841.609375 461.867188 L 846.082031 469.03125 C 846.46875 469.800781 847.234375 470.183594 848 470.4375 L 856.308594 472.484375 Z M 850.8125 478.882812 " fill-opacity="1" fill-rule="nonzero"/><path fill="#000000" d="M 810.675781 521.101562 L 798.660156 518.03125 L 792.140625 507.539062 C 790.863281 505.492188 787.921875 505.492188 786.773438 507.539062 L 780.253906 518.03125 L 768.238281 521.101562 C 765.9375 521.613281 765.042969 524.554688 766.578125 526.347656 L 774.628906 535.6875 L 773.609375 548.222656 C 773.480469 550.527344 775.78125 552.316406 778.082031 551.421875 L 789.457031 546.5625 L 800.832031 551.421875 C 803.007812 552.316406 805.4375 550.65625 805.308594 548.222656 L 804.285156 535.6875 L 812.339844 526.347656 C 813.871094 524.554688 812.976562 521.742188 810.675781 521.101562 Z M 798.53125 532.488281 C 798.023438 533.128906 797.765625 533.894531 797.765625 534.789062 L 798.40625 543.363281 L 790.609375 540.035156 C 789.839844 539.652344 788.820312 539.652344 788.179688 540.035156 L 780.382812 543.363281 L 781.019531 534.789062 C 781.148438 533.894531 780.765625 533.128906 780.253906 532.488281 L 774.757812 526.089844 L 783.066406 524.042969 C 783.832031 523.789062 784.601562 523.277344 784.984375 522.636719 L 789.457031 515.472656 L 793.929688 522.636719 C 794.316406 523.402344 795.082031 523.789062 795.847656 524.042969 L 804.15625 526.089844 Z M 798.53125 532.488281 " fill-opacity="1" fill-rule="nonzero"/><path fill="#000000" d="M 628.144531 283.269531 L 636.195312 292.480469 L 635.175781 305.019531 C 635.046875 307.449219 637.476562 309.113281 639.648438 308.21875 L 651.023438 303.355469 L 662.402344 308.21875 C 664.703125 309.113281 667.003906 307.320312 666.875 305.019531 L 665.851562 292.480469 L 673.90625 283.269531 C 675.4375 281.476562 674.542969 278.664062 672.242188 278.023438 L 660.226562 274.953125 L 653.707031 264.460938 C 652.429688 262.414062 649.492188 262.414062 648.339844 264.460938 L 641.820312 274.953125 L 629.804688 278.023438 C 627.503906 278.535156 626.609375 281.351562 628.144531 283.269531 Z M 644.632812 280.839844 C 645.398438 280.582031 646.167969 280.199219 646.550781 279.429688 L 651.023438 272.265625 L 655.5 279.429688 C 655.882812 280.070312 656.648438 280.582031 657.414062 280.839844 L 665.722656 282.886719 L 660.226562 289.28125 C 659.714844 289.921875 659.332031 290.816406 659.460938 291.585938 L 660.101562 300.15625 L 652.300781 296.832031 C 651.535156 296.445312 650.640625 296.445312 649.875 296.832031 L 642.078125 300.15625 L 642.714844 291.585938 C 642.84375 290.691406 642.460938 289.921875 641.949219 289.28125 L 636.453125 282.886719 Z M 644.632812 280.839844 " fill-opacity="1" fill-rule="nonzero"/><path fill="#000000" d="M 576.375 330.351562 C 574.074219 330.863281 573.179688 333.675781 574.714844 335.59375 L 582.765625 344.933594 L 581.742188 357.214844 C 581.617188 359.648438 583.917969 361.308594 586.21875 360.414062 L 597.59375 355.554688 L 608.96875 360.414062 C 611.144531 361.308594 613.570312 359.648438 613.445312 357.214844 L 612.421875 344.804688 L 620.472656 335.46875 C 622.007812 333.675781 621.113281 330.863281 618.8125 330.222656 L 606.796875 327.152344 L 600.277344 316.660156 C 599 314.613281 596.1875 314.613281 594.910156 316.660156 L 588.390625 327.152344 Z M 593.121094 331.757812 L 597.59375 324.59375 L 602.066406 331.757812 C 602.449219 332.523438 603.21875 332.910156 603.984375 333.164062 L 612.292969 335.210938 L 606.796875 341.609375 C 606.285156 342.246094 605.902344 343.144531 606.03125 343.910156 L 606.667969 352.484375 L 598.871094 349.15625 C 598.105469 348.773438 597.210938 348.773438 596.316406 349.15625 L 588.519531 352.484375 L 589.15625 343.910156 C 589.15625 343.015625 588.902344 342.246094 588.390625 341.609375 L 582.894531 335.210938 L 591.203125 333.164062 C 591.96875 333.035156 592.738281 332.523438 593.121094 331.757812 Z M 593.121094 331.757812 " fill-opacity="1" fill-rule="nonzero"/><path fill="#000000" d="M 561.804688 399.945312 C 559.503906 400.457031 558.609375 403.402344 560.140625 405.191406 L 568.195312 414.402344 L 567.171875 426.941406 C 567.042969 429.371094 569.34375 431.035156 571.644531 430.140625 L 583.023438 425.277344 L 594.398438 430.140625 C 596.570312 431.035156 599 429.371094 598.871094 426.941406 L 597.847656 414.402344 L 605.902344 405.191406 C 607.4375 403.402344 606.542969 400.585938 604.242188 399.945312 L 592.226562 396.875 L 585.707031 386.386719 C 584.429688 384.339844 581.488281 384.339844 580.335938 386.386719 L 573.820312 396.875 Z M 578.546875 401.480469 L 583.023438 394.316406 L 587.496094 401.480469 C 587.878906 402.25 588.644531 402.632812 589.414062 402.890625 L 597.722656 404.9375 L 592.226562 411.332031 C 591.714844 411.972656 591.457031 412.867188 591.457031 413.636719 L 592.097656 422.207031 L 584.300781 418.882812 C 583.53125 418.496094 582.636719 418.496094 581.742188 418.882812 L 573.945312 422.207031 L 574.585938 413.636719 C 574.714844 412.738281 574.328125 411.972656 573.820312 411.332031 L 568.320312 404.9375 L 576.628906 402.890625 C 577.398438 402.632812 578.164062 402.121094 578.546875 401.480469 Z M 578.546875 401.480469 " fill-opacity="1" fill-rule="nonzero"/><path fill="#000000" d="M 619.195312 467.625 L 607.179688 464.554688 L 600.660156 454.0625 C 599.382812 452.015625 596.445312 452.015625 595.292969 454.0625 L 588.773438 464.554688 L 576.628906 467.625 C 574.328125 468.265625 573.433594 471.078125 574.96875 472.871094 L 583.023438 482.210938 L 582 494.746094 C 581.871094 497.050781 584.171875 498.839844 586.472656 497.945312 L 597.847656 493.082031 L 609.226562 497.945312 C 611.398438 498.839844 613.828125 497.175781 613.699219 494.746094 L 612.675781 482.210938 L 620.730469 472.871094 C 622.390625 471.078125 621.496094 468.265625 619.195312 467.625 Z M 607.054688 478.882812 C 606.542969 479.523438 606.15625 480.417969 606.285156 481.1875 L 606.925781 489.757812 L 599.128906 486.429688 C 598.234375 486.046875 597.464844 486.046875 596.570312 486.429688 L 588.773438 489.757812 L 589.414062 481.1875 C 589.414062 480.289062 589.15625 479.523438 588.644531 478.882812 L 583.148438 472.484375 L 591.457031 470.4375 C 592.226562 470.183594 592.992188 469.671875 593.375 469.03125 L 597.847656 461.867188 L 602.324219 469.03125 C 602.707031 469.800781 603.472656 470.183594 604.242188 470.4375 L 612.550781 472.484375 Z M 607.054688 478.882812 " fill-opacity="1" fill-rule="nonzero"/><path fill="#000000" d="M 627.25 526.347656 L 635.300781 535.6875 L 634.28125 548.222656 C 634.152344 550.527344 636.453125 552.316406 638.753906 551.421875 L 650.128906 546.5625 L 661.503906 551.421875 C 663.808594 552.316406 666.109375 550.527344 665.980469 548.222656 L 664.957031 535.6875 L 673.011719 526.347656 C 674.542969 524.554688 673.648438 521.742188 671.347656 521.101562 L 659.332031 518.03125 L 652.8125 507.539062 C 651.535156 505.492188 648.59375 505.492188 647.445312 507.539062 L 640.925781 518.03125 L 628.910156 521.101562 C 626.609375 521.742188 625.714844 524.554688 627.25 526.347656 Z M 643.867188 524.042969 C 644.632812 523.789062 645.398438 523.277344 645.785156 522.636719 L 650.257812 515.472656 L 654.601562 522.636719 C 654.988281 523.40625 655.753906 523.789062 656.519531 524.042969 L 664.828125 526.089844 L 659.332031 532.488281 C 658.820312 533.128906 658.4375 534.023438 658.566406 534.789062 L 659.203125 543.363281 L 651.40625 540.035156 C 650.640625 539.652344 649.746094 539.652344 648.980469 540.035156 L 641.183594 543.363281 L 641.820312 534.789062 C 641.949219 533.894531 641.566406 533.128906 641.054688 532.488281 L 635.558594 526.089844 Z M 643.867188 524.042969 " fill-opacity="1" fill-rule="nonzero"/></svg>
