<svg xmlns="http://www.w3.org/2000/svg" xmlns:xlink="http://www.w3.org/1999/xlink" width="1920" zoomAndPan="magnify" viewBox="0 0 1440 809.999993" height="1080" preserveAspectRatio="xMidYMid meet" version="1.0"><defs><clipPath id="5f985e740f"><path d="M 487 206.472656 L 946 206.472656 L 946 576 L 487 576 Z M 487 206.472656 " clip-rule="nonzero"/></clipPath><clipPath id="a96177abfe"><path d="M 989 277 L 996.742188 277 L 996.742188 351 L 989 351 Z M 989 277 " clip-rule="nonzero"/></clipPath><clipPath id="7c01de7494"><path d="M 832 618 L 884 618 L 884 626.460938 L 832 626.460938 Z M 832 618 " clip-rule="nonzero"/></clipPath><clipPath id="0d92d6ba14"><path d="M 574.363281 251 L 880 251 L 880 557.386719 L 574.363281 557.386719 Z M 574.363281 251 " clip-rule="nonzero"/></clipPath><clipPath id="aa57f8a202"><path d="M 635 233.386719 L 887.113281 233.386719 L 887.113281 493 L 635 493 Z M 635 233.386719 " clip-rule="nonzero"/></clipPath></defs><path fill="#d9d9d9" d="M 958.445312 265.554688 C 958.445312 244.199219 941.113281 226.894531 919.769531 226.894531 C 834.667969 226.894531 632.050781 226.894531 546.949219 226.894531 C 525.605469 226.894531 508.273438 244.199219 508.273438 265.554688 C 508.273438 335.128906 508.273438 480.535156 508.273438 550.105469 C 508.273438 571.460938 525.605469 588.800781 546.949219 588.800781 C 632.050781 588.800781 834.667969 588.800781 919.769531 588.800781 C 941.113281 588.800781 958.445312 571.460938 958.445312 550.105469 C 958.445312 480.535156 958.445312 335.128906 958.445312 265.554688 " fill-opacity="1" fill-rule="evenodd"/><g clip-path="url(#5f985e740f)"><path fill="#ffffff" d="M 487.34375 297.988281 C 487.34375 297.988281 487.691406 457.792969 487.828125 533.28125 C 487.863281 556.679688 506.855469 575.648438 530.277344 575.648438 C 615.308594 575.648438 818.0625 575.648438 903.164062 575.648438 C 926.621094 575.648438 945.613281 556.644531 945.613281 533.179688 L 945.613281 248.976562 C 945.613281 237.660156 941.082031 226.789062 933.054688 218.828125 C 925.027344 210.867188 914.132812 206.4375 902.820312 206.507812 C 848.332031 206.957031 756.035156 207.71875 756.035156 207.71875 C 753.960938 207.71875 752.265625 209.449219 752.300781 211.527344 C 752.300781 213.601562 753.996094 215.265625 756.105469 215.230469 C 756.105469 215.230469 848.402344 214.503906 902.886719 214.054688 C 912.195312 213.984375 921.15625 217.617188 927.761719 224.160156 C 934.371094 230.734375 938.070312 239.667969 938.070312 248.976562 C 938.070312 318.652344 938.070312 463.710938 938.070312 533.179688 C 938.070312 552.457031 922.46875 568.101562 903.164062 568.101562 L 530.277344 568.101562 C 511.007812 568.101562 495.371094 552.527344 495.335938 533.25 C 495.199219 457.757812 494.886719 297.988281 494.886719 297.988281 C 494.851562 295.910156 493.15625 294.214844 491.082031 294.214844 C 489.003906 294.214844 487.34375 295.910156 487.34375 297.988281 " fill-opacity="1" fill-rule="evenodd"/></g><path fill="#ffffff" d="M 862.136719 603.234375 L 796.890625 603.234375 C 794.816406 603.234375 793.121094 604.894531 793.121094 606.972656 C 793.121094 609.050781 794.816406 610.746094 796.890625 610.746094 L 862.136719 610.746094 C 864.210938 610.746094 865.875 609.050781 865.875 606.972656 C 865.875 604.894531 864.210938 603.234375 862.136719 603.234375 " fill-opacity="1" fill-rule="evenodd"/><g clip-path="url(#a96177abfe)"><path fill="#ffffff" d="M 996.777344 346.238281 L 996.777344 280.992188 C 996.777344 278.882812 995.117188 277.21875 993.007812 277.21875 C 990.929688 277.21875 989.234375 278.882812 989.234375 280.992188 L 989.234375 346.238281 C 989.234375 348.347656 990.929688 350.011719 993.007812 350.011719 C 995.117188 350.011719 996.777344 348.347656 996.777344 346.238281 " fill-opacity="1" fill-rule="evenodd"/></g><g clip-path="url(#7c01de7494)"><path fill="#ffffff" d="M 879.605469 618.949219 L 836.019531 618.949219 C 833.941406 618.949219 832.28125 620.644531 832.28125 622.722656 C 832.28125 624.796875 833.941406 626.460938 836.019531 626.460938 L 879.605469 626.460938 C 881.71875 626.460938 883.378906 624.796875 883.378906 622.722656 C 883.378906 620.644531 881.71875 618.949219 879.605469 618.949219 " fill-opacity="1" fill-rule="evenodd"/></g><path fill="#ffffff" d="M 981.070312 314.222656 L 981.070312 270.609375 C 981.070312 268.53125 979.375 266.835938 977.300781 266.835938 C 975.226562 266.835938 973.53125 268.53125 973.53125 270.609375 L 973.53125 314.222656 C 973.53125 316.296875 975.226562 317.992188 977.300781 317.992188 C 979.375 317.992188 981.070312 316.296875 981.070312 314.222656 " fill-opacity="1" fill-rule="evenodd"/><g clip-path="url(#0d92d6ba14)"><path fill="#000000" d="M 727.113281 251.457031 C 642.914062 251.457031 574.363281 320.074219 574.363281 404.355469 C 574.363281 488.636719 642.914062 557.253906 727.113281 557.253906 C 811.308594 557.253906 879.863281 488.636719 879.863281 404.355469 C 879.863281 367.917969 867.546875 335.335938 846.628906 308.640625 L 832.246094 325.707031 C 850.480469 348.179688 857.617188 373.132812 857.617188 404.355469 C 857.617188 476.582031 799.265625 534.953125 727.109375 534.953125 C 654.957031 534.953125 596.605469 476.582031 596.605469 404.355469 C 596.605469 332.128906 654.957031 273.722656 727.109375 273.722656 C 749.976562 273.722656 767.078125 277.011719 785.746094 287.332031 L 799.410156 269.371094 C 777.550781 257.285156 753.792969 251.457031 727.113281 251.457031 Z M 727.113281 251.457031 " fill-opacity="1" fill-rule="evenodd"/></g><g clip-path="url(#aa57f8a202)"><path fill="#000000" d="M 670.578125 384.246094 C 676.738281 384.246094 681.398438 389.304688 684.554688 399.421875 C 690.871094 418.394531 695.375 427.878906 698.058594 427.878906 C 700.113281 427.878906 702.246094 426.300781 704.457031 423.136719 C 748.835938 351.996094 789.902344 294.449219 827.648438 250.5 C 837.441406 239.117188 852.996094 233.425781 874.320312 233.425781 C 879.375 233.425781 882.769531 233.902344 884.507812 234.847656 C 886.242188 235.796875 887.113281 236.984375 887.113281 238.40625 C 887.113281 240.621094 884.507812 244.96875 879.292969 251.449219 C 818.332031 324.804688 761.789062 402.269531 709.667969 483.847656 C 706.035156 489.539062 698.613281 492.382812 687.398438 492.382812 C 676.027344 492.382812 669.316406 491.910156 667.261719 490.960938 C 661.890625 488.589844 655.574219 476.496094 648.308594 454.675781 C 640.097656 430.488281 635.988281 415.3125 635.988281 409.144531 C 635.988281 402.507812 641.515625 396.101562 652.574219 389.9375 C 659.363281 386.144531 665.367188 384.246094 670.578125 384.246094 " fill-opacity="1" fill-rule="nonzero"/></g></svg>