<svg xmlns="http://www.w3.org/2000/svg" xmlns:xlink="http://www.w3.org/1999/xlink" width="1920" zoomAndPan="magnify" viewBox="0 0 1440 809.999993" height="1080" preserveAspectRatio="xMidYMid meet" version="1.0"><rect x="-144" width="1728" fill="#ffffff" y="-80.999999" height="971.999992" fill-opacity="1"/><rect x="-144" width="1728" fill="#ffffff" y="-80.999999" height="971.999992" fill-opacity="1"/><rect x="-144" width="1728" fill="#ffffff" y="-80.999999" height="971.999992" fill-opacity="1"/><path fill="#000000" d="M 594 459 L 558 459 L 558 531 C 558 550.890625 574.109375 567 594 567 L 666 567 L 666 531 L 594 531 Z M 594 279 L 666 279 L 666 243 L 594 243 C 574.109375 243 558 259.109375 558 279 L 558 351 L 594 351 Z M 846 243 L 774 243 L 774 279 L 846 279 L 846 351 L 882 351 L 882 279 C 882 259.109375 865.890625 243 846 243 Z M 846 531 L 774 531 L 774 567 L 846 567 C 865.890625 567 882 550.890625 882 531 L 882 459 L 846 459 Z M 720 351 C 690.210938 351 666 375.210938 666 405 C 666 434.789062 690.210938 459 720 459 C 749.789062 459 774 434.789062 774 405 C 774 375.210938 749.789062 351 720 351 Z M 720 351 " fill-opacity="1" fill-rule="nonzero"/></svg>