<svg xmlns="http://www.w3.org/2000/svg" xmlns:xlink="http://www.w3.org/1999/xlink" width="1920" zoomAndPan="magnify" viewBox="0 0 1440 809.999993" height="1080" preserveAspectRatio="xMidYMid meet" version="1.0"><defs><clipPath id="1e4b541848"><path d="M 545.335938 544 L 838 544 L 838 565 L 545.335938 565 Z M 545.335938 544 " clip-rule="nonzero"/></clipPath><clipPath id="27da7d39ba"><path d="M 545.335938 544 L 648 544 L 648 565 L 545.335938 565 Z M 545.335938 544 " clip-rule="nonzero"/></clipPath></defs><path fill="#3e2017" d="M 782.1875 525.144531 L 782.1875 514.15625 C 782.1875 508.128906 777.8125 503.242188 772.414062 503.242188 L 610.792969 503.242188 C 605.398438 503.242188 601.023438 508.128906 601.023438 514.15625 L 601.023438 525.144531 L 782.1875 525.144531 " fill-opacity="1" fill-rule="nonzero"/><path fill="#613527" d="M 810.578125 544.828125 C 809.417969 525.789062 797.347656 510.8125 782.617188 510.8125 L 600.59375 510.8125 C 585.863281 510.8125 573.789062 525.789062 572.628906 544.828125 L 810.578125 544.828125 " fill-opacity="1" fill-rule="nonzero"/><path fill="#4f2a1e" d="M 782.617188 510.8125 L 726.644531 510.8125 C 741.375 510.8125 753.445312 525.789062 754.605469 544.828125 L 810.578125 544.828125 C 809.417969 525.789062 797.347656 510.8125 782.617188 510.8125 " fill-opacity="1" fill-rule="nonzero"/><path fill="#764131" d="M 656.164062 510.8125 L 600.59375 510.8125 C 585.863281 510.8125 573.789062 525.789062 572.628906 544.828125 L 628.203125 544.828125 C 629.363281 525.789062 641.433594 510.8125 656.164062 510.8125 " fill-opacity="1" fill-rule="nonzero"/><g clip-path="url(#1e4b541848)"><path fill="#4b281d" d="M 837.847656 564.855469 C 837.144531 553.675781 827.859375 544.828125 816.5 544.828125 L 566.710938 544.828125 C 555.351562 544.828125 546.066406 553.675781 545.363281 564.855469 L 837.847656 564.855469 " fill-opacity="1" fill-rule="nonzero"/></g><g clip-path="url(#27da7d39ba)"><path fill="#5f3326" d="M 647.878906 544.828125 L 566.710938 544.828125 C 555.351562 544.828125 546.066406 553.675781 545.363281 564.855469 L 647.878906 564.855469 L 647.878906 544.828125 " fill-opacity="1" fill-rule="nonzero"/></g><path fill="#402117" d="M 741.933594 564.855469 L 837.847656 564.855469 C 837.144531 553.675781 827.859375 544.828125 816.5 544.828125 L 741.933594 544.828125 L 741.933594 564.855469 " fill-opacity="1" fill-rule="nonzero"/><path fill="#92513e" d="M 757.261719 339.5625 L 667.273438 429.503906 L 601.601562 363.863281 L 691.585938 273.921875 L 757.261719 339.5625 " fill-opacity="1" fill-rule="nonzero"/><path fill="#824736" d="M 667.628906 387.742188 L 622.667969 342.804688 L 601.601562 363.863281 L 667.273438 429.503906 L 757.257812 339.5625 L 736.546875 318.863281 L 667.628906 387.742188 " fill-opacity="1" fill-rule="nonzero"/><path fill="#92513e" d="M 667.398438 429.628906 C 671.609375 433.839844 671.609375 440.671875 667.398438 444.882812 L 656.054688 456.21875 C 651.839844 460.429688 645.007812 460.429688 640.792969 456.21875 L 574.871094 390.332031 C 570.660156 386.117188 570.660156 379.289062 574.871094 375.078125 L 586.214844 363.742188 C 590.429688 359.527344 597.261719 359.527344 601.476562 363.742188 L 667.398438 429.628906 " fill-opacity="1" fill-rule="nonzero"/><path fill="#92513e" d="M 783.988281 313.097656 C 788.199219 317.308594 788.199219 324.140625 783.988281 328.351562 L 772.644531 339.6875 C 768.429688 343.902344 761.597656 343.902344 757.382812 339.6875 L 691.464844 273.800781 C 687.25 269.589844 687.25 262.757812 691.464844 258.546875 L 702.804688 247.210938 C 707.019531 243 713.851562 243 718.066406 247.210938 L 783.988281 313.097656 " fill-opacity="1" fill-rule="nonzero"/><path fill="#723e2f" d="M 774.429688 317.914062 C 770.214844 322.125 763.382812 322.125 759.167969 317.914062 L 695.617188 254.394531 L 691.464844 258.546875 C 687.25 262.757812 687.25 269.585938 691.464844 273.796875 L 757.382812 339.6875 C 761.597656 343.898438 768.429688 343.898438 772.644531 339.6875 L 783.988281 328.351562 C 788.199219 324.136719 788.199219 317.308594 783.988281 313.097656 L 781.617188 310.730469 L 774.429688 317.914062 " fill-opacity="1" fill-rule="nonzero"/><path fill="#723e2f" d="M 657.839844 434.445312 C 653.625 438.65625 646.792969 438.65625 642.578125 434.445312 L 579.027344 370.925781 L 574.871094 375.078125 C 570.660156 379.289062 570.660156 386.117188 574.871094 390.332031 L 640.792969 456.21875 C 645.007812 460.429688 651.839844 460.429688 656.054688 456.21875 L 667.398438 444.882812 C 671.609375 440.671875 671.609375 433.839844 667.398438 429.628906 L 665.027344 427.261719 L 657.839844 434.445312 " fill-opacity="1" fill-rule="nonzero"/><path fill="#9a5b3d" d="M 669.570312 295.929688 L 735.242188 361.570312 L 757.261719 339.5625 L 691.585938 273.921875 L 669.570312 295.929688 " fill-opacity="1" fill-rule="nonzero"/><path fill="#b26139" d="M 669.570312 295.929688 L 682.667969 309.019531 L 704.683594 287.011719 L 691.585938 273.921875 L 669.570312 295.929688 " fill-opacity="1" fill-rule="nonzero"/><path fill="#d06e34" d="M 736.296875 360.515625 L 688.238281 408.550781 L 622.5625 342.910156 L 670.621094 294.875 L 736.296875 360.515625 " fill-opacity="1" fill-rule="nonzero"/><path fill="#d18433" d="M 715.582031 339.816406 L 667.527344 387.851562 L 622.5625 342.910156 L 670.621094 294.875 L 715.582031 339.816406 " fill-opacity="1" fill-rule="nonzero"/><path fill="#ef982d" d="M 683.722656 307.96875 L 635.664062 356.003906 L 622.5625 342.910156 L 670.621094 294.875 L 683.722656 307.96875 " fill-opacity="1" fill-rule="nonzero"/><path fill="#613527" d="M 693.425781 400.886719 C 696.683594 404.144531 696.449219 409.660156 692.898438 413.207031 C 689.347656 416.757812 683.828125 416.992188 680.570312 413.738281 L 617.375 350.574219 C 614.117188 347.316406 614.355469 341.800781 617.902344 338.253906 C 621.453125 334.707031 626.972656 334.46875 630.230469 337.726562 L 693.425781 400.886719 " fill-opacity="1" fill-rule="nonzero"/><path fill="#613527" d="M 741.484375 352.851562 C 744.742188 356.113281 744.507812 361.628906 740.957031 365.175781 C 737.40625 368.726562 731.886719 368.960938 728.628906 365.703125 L 665.433594 302.542969 C 662.175781 299.285156 662.410156 293.765625 665.960938 290.21875 C 669.511719 286.671875 675.03125 286.433594 678.289062 289.691406 L 741.484375 352.851562 " fill-opacity="1" fill-rule="nonzero"/><path fill="#824736" d="M 735.269531 385.039062 L 712.773438 407.527344 L 701.019531 395.777344 L 723.515625 373.292969 L 735.269531 385.039062 " fill-opacity="1" fill-rule="nonzero"/><path fill="#613527" d="M 743.488281 380.554688 C 747.761719 384.828125 747.761719 391.757812 743.488281 396.03125 L 723.765625 415.738281 C 719.492188 420.015625 712.5625 420.015625 708.285156 415.738281 C 704.007812 411.464844 704.007812 404.535156 708.285156 400.261719 L 728.003906 380.554688 C 732.277344 376.28125 739.210938 376.28125 743.488281 380.554688 " fill-opacity="1" fill-rule="nonzero"/><path fill="#824736" d="M 733.628906 405.882812 L 724.347656 415.160156 L 781.132812 467.59375 L 795.367188 453.367188 L 742.90625 396.609375 L 733.628906 405.882812 " fill-opacity="1" fill-rule="nonzero"/><path fill="#824736" d="M 873.953125 546.140625 L 883.234375 536.867188 L 799.4375 457.4375 L 792.320312 464.546875 L 785.203125 471.664062 L 864.675781 555.417969 L 873.953125 546.140625 " fill-opacity="1" fill-rule="nonzero"/><path fill="#613527" d="M 802.199219 447.59375 C 804.15625 449.550781 804.15625 452.71875 802.199219 454.675781 L 782.445312 474.421875 C 780.488281 476.378906 777.316406 476.378906 775.359375 474.421875 C 773.402344 472.46875 773.402344 469.296875 775.359375 467.34375 L 795.117188 447.59375 C 797.074219 445.640625 800.242188 445.640625 802.199219 447.59375 " fill-opacity="1" fill-rule="nonzero"/><path fill="#613527" d="M 812.824219 458.214844 C 814.78125 460.171875 814.78125 463.339844 812.824219 465.296875 L 793.070312 485.042969 C 791.113281 486.996094 787.941406 486.996094 785.984375 485.042969 C 784.027344 483.085938 784.027344 479.917969 785.984375 477.964844 L 805.742188 458.214844 C 807.699219 456.261719 810.867188 456.261719 812.824219 458.214844 " fill-opacity="1" fill-rule="nonzero"/><path fill="#824736" d="M 886.25 527.425781 C 894.816406 535.988281 894.816406 549.871094 886.25 558.433594 C 877.683594 566.996094 863.796875 566.996094 855.226562 558.433594 C 846.664062 549.871094 846.664062 535.988281 855.226562 527.425781 C 863.796875 518.863281 877.683594 518.863281 886.25 527.425781 " fill-opacity="1" fill-rule="nonzero"/><path fill="#613527" d="M 713.28125 383.519531 L 701.019531 395.777344 L 707.027344 401.78125 C 704.070312 406.046875 704.484375 411.941406 708.285156 415.738281 C 712.5625 420.015625 719.492188 420.015625 723.765625 415.738281 L 724.347656 415.160156 L 778.003906 464.703125 L 775.359375 467.34375 C 773.402344 469.296875 773.402344 472.46875 775.359375 474.421875 C 777.316406 476.378906 780.488281 476.378906 782.445312 474.421875 L 793.335938 463.535156 L 713.28125 383.519531 " fill-opacity="1" fill-rule="nonzero"/><path fill="#613527" d="M 793.335938 463.535156 L 785.207031 471.660156 L 788.652344 475.296875 L 785.984375 477.964844 C 784.027344 479.917969 784.027344 483.085938 785.984375 485.042969 C 787.945312 486.996094 791.117188 486.996094 793.070312 485.042969 L 795.550781 482.566406 L 849.15625 539.058594 C 847.9375 545.878906 849.960938 553.160156 855.230469 558.433594 C 863.796875 566.996094 877.6875 566.996094 886.253906 558.433594 C 886.59375 558.089844 886.917969 557.742188 887.230469 557.382812 L 793.335938 463.535156 " fill-opacity="1" fill-rule="nonzero"/></svg>