<svg xmlns="http://www.w3.org/2000/svg" xmlns:xlink="http://www.w3.org/1999/xlink" width="1920" zoomAndPan="magnify" viewBox="0 0 1440 809.999993" height="1080" preserveAspectRatio="xMidYMid meet" version="1.0"><defs><clipPath id="78fe7a428d"><path d="M 525.695312 252 L 914.195312 252 L 914.195312 567 L 525.695312 567 Z M 525.695312 252 " clip-rule="nonzero"/></clipPath></defs><path fill="#efdecb" d="M 905.269531 411.71875 C 897.503906 435.558594 874.757812 455.671875 852.242188 466.542969 C 799.136719 492.09375 717.773438 515.316406 665.445312 526.417969 C 642.621094 534.496094 619.792969 543.738281 595.882812 548.007812 C 590.914062 548.941406 588.117188 544.125 587.417969 539.855469 C 584.546875 520.128906 579.191406 501.257812 571.503906 482.929688 C 566.765625 474.699219 575.695312 452.253906 585.867188 462.972656 C 591.84375 460.175781 598.054688 458.390625 604.578125 457.535156 C 606.828125 457.226562 609.390625 457.304688 610.710938 459.324219 C 665.601562 445.886719 720.722656 433.230469 775.535156 419.40625 C 812.027344 409.699219 860.859375 394.941406 888.34375 367.839844 C 904.878906 352.308594 891.992188 337.554688 876.15625 323.109375 C 861.324219 306.957031 795.101562 299.8125 795.101562 299.8125 C 795.101562 299.8125 801.078125 320.46875 801.699219 334.058594 C 804.882812 404.804688 795.875 407.445312 730.894531 423.132812 C 696.886719 432.296875 651.316406 421.734375 628.800781 400.378906 C 604.964844 377.78125 602.171875 322.410156 612.882812 308.429688 C 657.371094 250.03125 814.121094 243.273438 864.277344 264.476562 C 888.421875 274.648438 908.761719 289.792969 911.710938 325.980469 C 912.257812 349.433594 912.257812 390.207031 905.269531 411.71875 Z M 905.269531 411.71875 " fill-opacity="1" fill-rule="nonzero"/><path fill="#808080" d="M 586.953125 527.738281 C 585.402344 525.875 579.734375 523.234375 579.265625 520.984375 C 579.113281 520.050781 580.820312 516.167969 581.128906 515.160156 C 581.828125 512.441406 582.371094 509.800781 582.21875 507.003906 C 581.984375 502.113281 578.414062 495.746094 573.753906 494.890625 C 573.445312 490.695312 572.824219 486.503906 571.8125 482.386719 C 571.191406 479.667969 569.71875 478.195312 568.085938 477.960938 C 567.855469 477.105469 567.542969 476.328125 567.078125 475.554688 C 560.167969 464.527344 543.941406 471.515625 535.089844 475.707031 C 531.441406 477.417969 530.433594 484.871094 531.90625 488.054688 C 536.101562 496.910156 539.75 505.917969 542.855469 515.160156 C 542.777344 515.9375 542.855469 516.710938 542.933594 517.488281 C 545.804688 531.855469 548.910156 546.222656 552.171875 560.511719 C 552.636719 562.609375 554.113281 566.027344 556.90625 565.171875 C 566.300781 562.144531 579.34375 559.65625 585.945312 551.582031 C 591.300781 544.980469 592.542969 534.417969 586.953125 527.738281 Z M 560.480469 537.914062 C 562.03125 537.371094 563.351562 536.75 565.292969 536.980469 C 566.691406 537.136719 573.523438 537.835938 574.222656 538.921875 C 576.707031 543.039062 567.621094 544.746094 565.136719 542.105469 C 563.738281 540.632812 562.34375 540.398438 561.023438 540.863281 C 560.867188 539.933594 560.632812 538.921875 560.480469 537.914062 Z M 556.597656 486.039062 C 556.363281 486.660156 556.207031 487.203125 556.132812 487.746094 C 555.898438 489.453125 555.585938 491.085938 555.121094 492.558594 C 552.25 493.414062 550.308594 495.511719 549.144531 498.074219 C 547.824219 494.503906 546.347656 490.851562 544.875 487.355469 C 548.832031 485.882812 553.335938 484.949219 556.597656 486.039062 Z M 556.597656 486.039062 " fill-opacity="1" fill-rule="nonzero"/><g clip-path="url(#78fe7a428d)"><path fill="#4d4d4d" d="M 914.121094 321.632812 C 914.121094 321.554688 914.121094 321.554688 914.121094 321.476562 C 914.121094 321.476562 914.121094 321.398438 914.121094 321.398438 C 914.042969 316.816406 912.953125 312.390625 911.246094 308.121094 C 907.363281 298.179688 900.921875 289.328125 893.390625 281.792969 C 878.171875 266.574219 858.066406 258.109375 837.023438 254.535156 C 815.519531 250.886719 793.625 251.894531 771.964844 253.679688 C 749.914062 255.546875 728.019531 258.03125 706.359375 262.769531 C 684.855469 267.503906 663.582031 274.339844 644.015625 284.589844 C 634.46875 289.558594 624.375 295.152344 616.84375 303.074219 C 611.175781 309.050781 606.828125 317.285156 607.0625 325.59375 C 605.664062 330.71875 606.828125 335.84375 608.304688 340.816406 C 609.933594 346.40625 611.097656 351.921875 611.875 357.667969 C 613.351562 368.925781 615.136719 380.109375 619.25 390.75 C 621.191406 395.71875 623.910156 399.835938 628.335938 403.019531 C 632.835938 406.203125 637.882812 408.921875 642.773438 411.484375 C 652.710938 416.6875 663.195312 420.027344 674.21875 421.890625 C 685.476562 423.753906 696.886719 424.375 708.300781 424.917969 C 714.125 425.230469 719.945312 425.230469 725.769531 424.453125 C 731.359375 423.753906 736.792969 422.511719 742.308594 421.347656 C 752.867188 419.015625 763.269531 416.222656 773.207031 411.949219 C 778.097656 409.855469 782.757812 407.445312 787.257812 404.652344 C 791.453125 402.011719 795.566406 399.058594 798.207031 394.789062 C 801.078125 390.207031 801.777344 384.535156 802.320312 379.257812 C 802.863281 373.277344 803.019531 367.296875 803.019531 361.394531 C 803.019531 350.753906 803.019531 340.039062 803.019531 329.398438 C 803.019531 326.527344 803.019531 323.730469 803.019531 320.855469 C 803.019531 320.777344 803.019531 320.777344 803.019531 320.703125 C 804.804688 312.082031 801.699219 305.089844 796.34375 299.65625 C 813.734375 300.664062 830.96875 303.695312 847.738281 308.664062 C 856.046875 311.148438 864.585938 313.867188 872.351562 317.75 C 879.492188 321.324219 885.394531 326.449219 889.121094 333.59375 C 893 340.96875 894.398438 349.28125 895.796875 357.433594 C 892.457031 361.9375 888.730469 366.210938 884.851562 370.246094 C 877.785156 377.46875 869.554688 383.605469 861.09375 389.117188 C 852.398438 394.710938 843.234375 399.601562 833.765625 403.484375 C 790.675781 421.191406 745.023438 431.753906 699.371094 440.527344 C 695.570312 441.226562 691.765625 442.003906 687.960938 442.703125 C 687.882812 442.625 687.804688 442.546875 687.804688 442.546875 C 687.804688 442.546875 687.726562 442.625 687.726562 442.78125 C 645.570312 450.703125 603.179688 457.535156 561.410156 467.710938 C 560.710938 467.476562 559.859375 467.632812 559.3125 468.097656 C 559.238281 468.175781 559.238281 468.175781 559.160156 468.253906 C 548.601562 470.894531 538.042969 473.6875 527.558594 476.71875 C 527.09375 476.875 525.695312 477.496094 526.007812 478.195312 C 535.789062 499.859375 539.828125 523.546875 545.183594 546.535156 C 546.660156 552.980469 548.289062 559.425781 550.152344 565.714844 C 550.464844 566.726562 552.09375 566.335938 552.714844 566.105469 C 584.933594 554.144531 617.699219 543.582031 650.695312 533.875 C 652.945312 533.175781 655.195312 532.554688 657.527344 531.855469 C 657.605469 532.011719 657.679688 532.089844 657.679688 532.089844 C 657.679688 532.089844 657.679688 532.011719 657.679688 531.855469 C 688.269531 522.925781 719.09375 514.617188 749.835938 506.304688 C 764.976562 502.191406 780.347656 498.460938 795.253906 493.492188 C 809.464844 488.675781 823.359375 483.085938 836.949219 476.71875 C 849.371094 470.894531 861.714844 464.527344 872.660156 456.136719 C 883.375 447.984375 892.925781 437.964844 899.679688 426.316406 C 903.015625 420.570312 905.734375 414.359375 907.519531 407.988281 C 909.773438 399.835938 910.625 391.449219 911.089844 383.0625 C 911.558594 374.675781 911.710938 366.210938 912.179688 357.820312 C 912.644531 349.824219 913.1875 341.824219 913.652344 333.824219 C 913.808594 330.5625 913.964844 327.378906 914.121094 324.117188 C 914.195312 323.339844 914.195312 322.488281 914.195312 321.632812 C 914.121094 321.789062 914.121094 321.710938 914.121094 321.632812 Z M 638.273438 405.425781 C 633.925781 402.863281 629.1875 400.378906 626.160156 396.1875 C 623.132812 391.992188 621.65625 386.632812 620.261719 381.742188 C 618.707031 376.382812 617.542969 371.023438 616.765625 365.511719 C 615.988281 359.996094 615.445312 354.484375 614.359375 349.046875 C 613.660156 345.398438 612.417969 341.902344 611.488281 338.328125 C 614.125 342.058594 617.777344 345.242188 621.503906 347.882812 C 621.191406 349.824219 621.035156 354.015625 621.503906 358.988281 C 622.199219 365.664062 623.832031 370.945312 624.21875 370.867188 C 624.683594 370.792969 623.832031 365.433594 623.210938 358.832031 C 622.746094 354.40625 622.511719 350.601562 622.277344 348.503906 C 622.667969 348.734375 623.054688 349.046875 623.441406 349.28125 C 630.664062 354.015625 638.816406 357.589844 647.199219 359.53125 C 647.355469 359.53125 647.511719 359.609375 647.667969 359.609375 C 647.742188 360.851562 648.132812 363.570312 648.832031 367.375 C 649.683594 372.578125 650.925781 379.722656 652.246094 387.644531 C 653.566406 395.5625 654.730469 402.785156 655.585938 407.988281 C 656.050781 410.863281 656.4375 413.191406 656.75 414.589844 C 655.507812 414.125 654.265625 413.660156 653.023438 413.117188 C 647.898438 410.863281 643.007812 408.222656 638.273438 405.425781 Z M 641.457031 354.792969 C 641.457031 354.714844 641.457031 354.714844 641.457031 354.636719 C 640.988281 351.996094 640.601562 349.433594 640.214844 346.792969 C 640.289062 346.871094 640.289062 346.949219 640.367188 347.105469 C 642.851562 350.988281 646.113281 354.558594 649.917969 357.277344 C 647.046875 356.65625 644.25 355.804688 641.457031 354.792969 Z M 797.972656 385.625 C 797.121094 390.75 795.101562 395.175781 791.140625 398.59375 C 787.414062 401.855469 782.910156 404.417969 778.5625 406.667969 C 769.402344 411.40625 759.542969 414.511719 749.605469 417.074219 C 739.203125 419.714844 728.410156 422.355469 717.617188 422.511719 C 711.949219 422.589844 706.28125 422.203125 700.691406 421.8125 C 695.257812 421.503906 689.902344 421.113281 684.464844 420.492188 C 675.226562 419.484375 666.066406 417.773438 657.371094 414.667969 C 657.292969 413.191406 657.136719 410.785156 656.828125 407.679688 C 656.285156 402.398438 655.273438 395.175781 654.03125 387.253906 C 652.710938 379.332031 651.316406 372.1875 650.152344 366.984375 C 649.296875 363.414062 648.675781 360.773438 648.210938 359.53125 C 658.535156 361.859375 669.328125 363.101562 679.886719 363.957031 C 682.214844 364.113281 684.621094 364.269531 686.949219 364.421875 C 687.027344 366.675781 687.726562 371.957031 688.8125 378.089844 C 690.210938 386.167969 691.765625 392.691406 692.230469 392.613281 C 692.695312 392.535156 691.917969 385.933594 690.445312 377.78125 C 689.359375 371.800781 688.269531 366.675781 687.570312 364.5 C 694.792969 364.8125 702.011719 364.65625 709.234375 364.113281 C 717.617188 363.492188 725.925781 362.25 734.15625 360.695312 C 734.386719 361.9375 734.929688 364.113281 735.550781 366.984375 C 736.5625 371.488281 737.804688 377.703125 738.890625 384.691406 C 739.976562 391.605469 740.832031 397.972656 741.453125 402.554688 C 742.074219 407.136719 742.539062 409.929688 742.773438 409.929688 C 743.003906 409.929688 742.929688 407.058594 742.617188 402.398438 C 742.308594 397.816406 741.6875 391.371094 740.519531 384.382812 C 739.433594 377.390625 737.960938 371.101562 736.640625 366.675781 C 735.785156 363.878906 735.007812 361.78125 734.542969 360.617188 C 736.5625 360.230469 738.503906 359.839844 740.519531 359.453125 C 749.140625 357.667969 757.523438 355.648438 765.832031 352.695312 C 768.78125 351.609375 771.730469 350.523438 774.605469 349.28125 C 774.605469 350.210938 774.683594 351.921875 774.683594 354.25 C 774.683594 356.035156 774.757812 358.054688 774.835938 360.460938 C 774.914062 361.628906 774.992188 362.871094 775.148438 364.113281 C 775.304688 365.355469 775.457031 366.675781 775.613281 367.996094 C 776.777344 378.632812 776.699219 387.253906 777.167969 387.253906 C 777.632812 387.253906 778.410156 378.558594 777.320312 367.761719 C 777.167969 366.441406 777.011719 365.121094 776.855469 363.878906 C 776.699219 362.636719 776.546875 361.472656 776.390625 360.308594 C 776.15625 357.976562 776 355.957031 775.847656 354.171875 C 775.613281 351.6875 775.226562 349.902344 774.914062 349.046875 C 779.882812 346.871094 784.773438 344.386719 789.199219 341.359375 C 793.390625 338.484375 796.808594 334.835938 799.214844 330.5625 C 799.214844 337.707031 799.214844 344.851562 799.214844 351.996094 C 799.449219 363.101562 799.835938 374.519531 797.972656 385.625 Z M 796.1875 329.863281 C 794.402344 333.203125 792.382812 335.921875 789.433594 338.253906 C 786.25 340.738281 782.757812 342.757812 779.183594 344.542969 C 763.347656 352.542969 746.109375 356.503906 728.640625 359.375 C 709.234375 362.636719 689.902344 363.023438 670.335938 360.539062 C 667.152344 360.152344 663.96875 359.761719 660.863281 359.296875 C 660.785156 359.21875 660.632812 359.21875 660.476562 359.140625 C 652.710938 357.125 646.578125 350.675781 642.699219 343.921875 C 639.046875 337.476562 636.640625 328.855469 639.667969 321.632812 C 643.164062 313.324219 651.082031 306.957031 658.457031 302.21875 C 666.453125 297.015625 675.226562 292.976562 684.234375 290.105469 C 695.179688 286.6875 706.59375 285.132812 718.082031 284.125 C 727.867188 283.191406 737.492188 282.183594 747.277344 283.269531 C 756.746094 284.277344 766.140625 286.53125 774.992188 290.105469 C 783.222656 293.367188 791.996094 297.945312 796.808594 305.714844 C 801.621094 313.246094 800.300781 322.253906 796.1875 329.863281 Z M 893.777344 334.757812 C 890.515625 327.691406 885.316406 321.945312 878.484375 318.0625 C 870.953125 313.789062 862.414062 311.070312 854.105469 308.429688 C 845.488281 305.714844 836.714844 303.539062 827.863281 301.90625 C 817.769531 300.042969 807.601562 298.800781 797.429688 298.257812 C 796.808594 298.257812 796.03125 298.414062 795.332031 298.644531 C 788.8125 292.589844 779.496094 288.394531 771.5 285.753906 C 762.183594 282.726562 752.320312 280.785156 742.460938 280.394531 C 737.726562 280.164062 733.066406 280.472656 728.410156 280.863281 C 722.429688 281.328125 716.453125 281.871094 710.554688 282.570312 C 689.589844 285.054688 668.785156 291.113281 651.625 304.003906 C 644.949219 309.050781 637.417969 315.886719 635.320312 324.351562 C 634.933594 325.90625 634.777344 327.535156 634.699219 329.167969 C 634.46875 329.476562 634.3125 329.789062 634.3125 330.175781 C 635.320312 337.863281 636.253906 345.550781 637.496094 353.164062 C 630.894531 350.367188 624.53125 346.640625 619.40625 341.746094 C 616.6875 339.183594 614.125 336.15625 612.574219 332.660156 C 611.488281 330.253906 611.019531 327.769531 610.945312 325.128906 C 611.019531 324.894531 610.945312 324.738281 610.945312 324.585938 C 610.945312 322.566406 611.175781 320.625 611.640625 318.683594 C 614.203125 307.808594 622.820312 300.277344 631.75 294.453125 C 631.984375 294.296875 632.214844 294.21875 632.371094 294.0625 C 632.371094 295.539062 632.527344 297.871094 632.835938 300.433594 C 633.378906 304.78125 634.234375 308.277344 634.699219 308.199219 C 635.167969 308.121094 635.089844 304.546875 634.546875 300.199219 C 634.15625 297.324219 633.691406 294.839844 633.226562 293.441406 C 638.816406 289.871094 644.714844 286.6875 650.695312 283.734375 C 650.617188 284.824219 650.617188 286.609375 650.773438 288.628906 C 651.003906 291.96875 651.46875 294.683594 651.9375 294.683594 C 652.402344 294.683594 652.710938 291.890625 652.480469 288.550781 C 652.324219 286.296875 651.9375 284.433594 651.625 283.347656 C 659.234375 279.699219 667.152344 276.511719 675.148438 273.71875 C 674.917969 274.726562 674.917969 276.902344 675.148438 279.464844 C 675.460938 282.957031 676.160156 285.675781 676.625 285.597656 C 677.089844 285.523438 677.246094 282.726562 676.859375 279.308594 C 676.625 276.589844 676.160156 274.339844 675.695312 273.484375 C 680.351562 271.855469 685.085938 270.457031 689.824219 269.058594 C 693.628906 267.972656 697.433594 266.960938 701.3125 266.105469 C 701.003906 267.347656 700.925781 270.300781 701.003906 273.71875 C 701.160156 278.222656 701.703125 281.871094 702.167969 281.871094 C 702.632812 281.871094 702.945312 278.144531 702.789062 273.640625 C 702.632812 270.066406 702.324219 267.039062 701.933594 265.953125 C 711.25 263.699219 720.722656 261.914062 730.195312 260.4375 C 730.039062 261.449219 730.117188 263.777344 730.273438 266.339844 C 730.503906 269.914062 730.738281 272.785156 731.203125 272.785156 C 731.671875 272.785156 732.214844 269.835938 731.980469 266.183594 C 731.824219 263.464844 731.28125 261.214844 730.894531 260.28125 C 738.191406 259.195312 745.488281 258.261719 752.789062 257.488281 C 755.195312 257.253906 757.523438 257.019531 759.929688 256.789062 C 759.929688 257.019531 759.851562 257.332031 759.851562 257.71875 C 759.699219 260.128906 759.773438 266.417969 759.929688 268.046875 C 760.007812 269.679688 760.394531 270.609375 760.628906 270.609375 C 760.863281 270.535156 760.941406 269.601562 761.171875 268.125 C 761.40625 266.574219 761.640625 264.398438 761.714844 262.070312 C 761.871094 259.972656 761.5625 257.953125 761.171875 256.789062 C 769.714844 255.933594 778.332031 255.234375 786.949219 254.769531 C 786.636719 256.398438 786.484375 259.273438 786.636719 262.613281 C 786.871094 267.738281 787.726562 271.777344 788.191406 271.777344 C 788.65625 271.699219 788.578125 267.582031 788.347656 262.535156 C 788.191406 259.195312 788.035156 256.320312 787.878906 254.691406 C 797.121094 254.226562 806.28125 254.148438 815.519531 254.613281 C 815.519531 254.691406 815.519531 254.769531 815.519531 254.769531 C 815.519531 255 815.519531 255.234375 815.519531 255.46875 C 815.519531 255.933594 815.519531 256.476562 815.519531 257.097656 C 815.519531 259.507812 815.597656 262.769531 815.828125 266.339844 C 816.296875 273.5625 817.070312 279.386719 817.539062 279.386719 C 818.003906 279.386719 818.003906 273.484375 817.539062 266.261719 C 817.304688 262.613281 816.996094 259.351562 816.683594 257.019531 C 816.605469 256.398438 816.527344 255.933594 816.449219 255.46875 C 816.375 255.15625 816.375 254.925781 816.296875 254.691406 C 836.714844 255.777344 857.367188 260.203125 874.914062 271.078125 C 883.839844 276.589844 891.683594 283.96875 898.046875 292.277344 C 903.871094 299.964844 909.304688 309.285156 910.394531 319.070312 C 910.46875 320.003906 910.546875 321.011719 910.546875 321.945312 C 910.546875 323.03125 910.46875 324.117188 910.394531 325.207031 C 909.773438 332.738281 906.667969 340.039062 903.09375 346.484375 C 901.773438 348.8125 900.378906 350.988281 898.980469 353.242188 C 897.738281 347.027344 896.417969 340.660156 893.777344 334.757812 Z M 553.335938 563.851562 C 546.96875 541.40625 543.554688 518.1875 536.488281 495.976562 C 534.625 489.996094 532.453125 484.171875 529.96875 478.503906 C 539.75 475.628906 549.609375 473.066406 559.46875 470.582031 C 567.234375 475.785156 571.660156 487.746094 567.386719 496.445312 C 566.613281 498.074219 569.097656 498.230469 569.949219 497.839844 C 572.203125 496.988281 574.765625 497.839844 576.628906 499.238281 C 578.800781 500.871094 580.042969 503.433594 580.507812 506.074219 C 581.597656 512.207031 578.335938 517.878906 574.84375 522.613281 C 573.988281 523.703125 575.074219 524.632812 576.238281 524.632812 C 581.675781 524.476562 586.175781 529.214844 587.652344 534.109375 C 589.515625 540.476562 587.03125 547.308594 583.460938 552.589844 C 583.304688 552.824219 583.226562 553.132812 583.148438 553.289062 C 576.472656 555.542969 569.71875 557.949219 563.039062 560.277344 C 559.859375 561.445312 556.597656 562.609375 553.335938 563.851562 Z M 587.808594 551.660156 C 591.222656 545.914062 593.320312 538.765625 591.066406 532.320312 C 589.203125 527.042969 584.703125 522.769531 579.191406 521.914062 C 582.917969 516.480469 585.710938 509.957031 583.691406 503.355469 C 582.0625 497.917969 577.09375 494.425781 571.738281 494.734375 C 574.609375 486.039062 570.726562 475.242188 563.738281 469.496094 C 575.851562 466.542969 588.117188 463.90625 600.308594 461.417969 C 612.261719 459.011719 624.140625 456.757812 636.175781 454.507812 C 636.5625 455.984375 637.882812 459.789062 639.4375 465.222656 C 640.523438 468.71875 641.609375 472.992188 642.773438 477.726562 C 643.941406 482.464844 645.183594 487.667969 646.425781 493.183594 C 648.910156 504.132812 651.316406 514.070312 653.410156 521.140625 C 653.953125 522.925781 654.5 524.476562 654.886719 525.875 C 655.351562 527.273438 655.742188 528.4375 656.128906 529.449219 C 656.207031 529.757812 656.363281 529.992188 656.4375 530.226562 C 633.535156 536.902344 610.554688 543.972656 587.808594 551.660156 Z M 659.390625 529.371094 C 658.613281 529.605469 657.914062 529.835938 657.136719 529.992188 C 656.59375 527.972656 655.742188 524.867188 654.730469 520.75 C 652.867188 513.605469 650.695312 503.664062 648.210938 492.714844 C 646.96875 487.203125 645.726562 482 644.40625 477.261719 C 643.085938 472.523438 641.84375 468.332031 640.679688 464.835938 C 640.136719 463.050781 639.515625 461.496094 638.972656 460.175781 C 638.503906 458.777344 637.960938 457.613281 637.574219 456.683594 C 637.109375 455.671875 636.796875 454.894531 636.5625 454.429688 C 648.675781 452.179688 660.785156 450.003906 672.898438 447.828125 C 677.945312 446.898438 682.992188 445.964844 688.039062 445.03125 C 688.660156 448.140625 690.210938 454.121094 692.230469 460.875 C 695.101562 470.738281 697.898438 478.660156 698.363281 478.503906 C 698.828125 478.347656 696.8125 470.273438 693.9375 460.410156 C 691.996094 453.730469 690.054688 447.90625 688.890625 444.957031 C 707.058594 441.539062 725.148438 437.964844 743.160156 433.773438 C 743.394531 435.402344 744.09375 438.585938 745.101562 442.9375 C 746.578125 449.226562 748.59375 457.925781 750.847656 467.554688 C 753.097656 477.183594 755.195312 485.882812 756.667969 492.171875 C 757.910156 497.296875 758.84375 500.792969 759.230469 501.878906 C 758.53125 502.035156 757.835938 502.269531 757.136719 502.421875 C 724.527344 511.199219 691.84375 519.894531 659.390625 529.371094 Z M 900.609375 417.695312 C 895.253906 430.121094 886.714844 440.917969 876.699219 449.847656 C 866.449219 458.933594 854.570312 465.769531 842.304688 471.902344 C 828.949219 478.582031 815.132812 484.40625 801.078125 489.453125 C 787.492188 494.347656 773.441406 497.996094 759.542969 501.800781 C 759.464844 500.558594 758.921875 496.988281 757.910156 491.863281 C 756.667969 485.492188 754.804688 476.71875 752.554688 467.164062 C 750.304688 457.535156 748.050781 448.917969 746.265625 442.625 C 745.101562 438.355469 744.09375 435.171875 743.550781 433.695312 C 743.625 433.695312 743.78125 433.617188 743.859375 433.617188 C 767.617188 428.105469 791.140625 421.582031 814.121094 413.503906 C 824.914062 409.699219 835.707031 405.738281 845.875 400.613281 C 855.582031 395.796875 864.898438 390.128906 873.515625 383.605469 C 881.746094 377.46875 889.042969 370.480469 895.5625 362.558594 C 901.078125 355.878906 906.046875 348.582031 909.539062 340.660156 C 908.917969 350.601562 908.21875 360.460938 907.910156 370.402344 C 907.363281 386.402344 907.132812 402.710938 900.609375 417.695312 Z M 681.671875 354.25 C 681.671875 354.328125 680.664062 354.328125 678.953125 353.9375 C 677.246094 353.550781 674.839844 352.695312 672.042969 351.144531 C 669.328125 349.511719 666.378906 347.105469 663.96875 343.609375 C 661.5625 340.195312 659.855469 335.613281 659.621094 330.71875 C 659.390625 325.828125 660.476562 321.167969 662.648438 317.441406 C 664.746094 313.789062 667.621094 311.148438 670.335938 309.441406 C 673.054688 307.730469 675.460938 306.957031 677.246094 306.566406 C 678.953125 306.179688 679.964844 306.257812 679.964844 306.335938 C 679.964844 306.488281 679.03125 306.644531 677.402344 307.1875 C 675.769531 307.730469 673.519531 308.664062 671.035156 310.449219 C 668.628906 312.238281 665.988281 314.800781 664.125 318.214844 C 662.183594 321.632812 661.175781 326.058594 661.40625 330.5625 C 661.71875 335.144531 663.195312 339.339844 665.367188 342.601562 C 667.542969 345.941406 670.335938 348.347656 672.820312 349.980469 C 675.382812 351.609375 677.632812 352.617188 679.265625 353.242188 C 680.816406 353.863281 681.75 354.09375 681.671875 354.25 Z M 734.078125 340.96875 C 734.078125 341.046875 733.921875 341.203125 733.535156 341.589844 C 733.144531 341.980469 732.601562 342.523438 731.671875 343.066406 C 730.039062 344.308594 727.398438 345.863281 723.90625 347.027344 C 720.414062 348.191406 715.988281 349.046875 711.097656 349.125 C 706.207031 349.28125 700.847656 348.734375 695.335938 347.570312 C 692.539062 346.949219 689.824219 346.09375 687.496094 344.621094 C 685.164062 343.066406 683.378906 341.046875 681.980469 339.105469 C 680.585938 337.085938 679.421875 335.144531 678.332031 333.203125 C 677.324219 331.261719 676.625 329.242188 676.390625 327.378906 C 676.160156 325.4375 676.625 323.652344 677.324219 322.332031 C 678.023438 320.933594 679.03125 320.003906 679.964844 319.457031 C 680.894531 318.914062 681.75 318.683594 682.292969 318.683594 C 682.835938 318.683594 683.148438 318.757812 683.148438 318.757812 C 683.148438 318.914062 681.90625 318.835938 680.351562 320.003906 C 679.574219 320.625 678.800781 321.476562 678.253906 322.71875 C 677.710938 323.960938 677.402344 325.515625 677.632812 327.222656 C 678.101562 330.640625 680.507812 334.371094 683.222656 338.175781 C 684.621094 340.039062 686.253906 341.902344 688.347656 343.222656 C 690.445312 344.542969 692.929688 345.398438 695.644531 345.941406 C 701.003906 347.027344 706.28125 347.648438 711.019531 347.570312 C 715.753906 347.570312 720.023438 346.871094 723.441406 345.941406 C 726.855469 344.929688 729.496094 343.609375 731.203125 342.601562 C 732.136719 342.136719 732.679688 341.667969 733.222656 341.359375 C 733.765625 341.046875 734 340.96875 734.078125 340.96875 Z M 742.695312 312.3125 C 743.316406 314.410156 743.550781 316.664062 743.238281 318.992188 C 742.929688 321.324219 741.996094 323.652344 740.675781 325.75 C 737.882812 329.863281 733.765625 332.503906 729.886719 334.058594 C 725.925781 335.613281 722.199219 336.078125 719.09375 336.3125 C 715.988281 336.542969 713.425781 336.464844 711.71875 336.3125 C 710.007812 336.234375 709 336.078125 709 336 C 709 335.84375 709.933594 335.765625 711.71875 335.6875 C 713.425781 335.535156 715.910156 335.457031 719.015625 335.144531 C 722.042969 334.757812 725.691406 334.136719 729.339844 332.660156 C 732.992188 331.109375 736.792969 328.621094 739.277344 324.894531 C 741.839844 321.167969 742.308594 316.585938 741.21875 312.859375 C 740.675781 310.992188 739.746094 309.363281 738.582031 308.121094 C 737.414062 306.878906 736.019531 306.023438 734.621094 305.402344 C 729.03125 302.839844 725.535156 301.207031 725.613281 300.976562 C 725.691406 300.742188 729.339844 301.984375 735.164062 304.238281 C 736.640625 304.859375 738.269531 305.714844 739.589844 307.109375 C 740.988281 308.351562 742.074219 310.21875 742.695312 312.3125 Z M 771.578125 307.65625 C 773.984375 313.480469 773.59375 319.847656 771.730469 324.816406 C 769.867188 329.941406 766.453125 333.59375 763.347656 336.15625 C 760.164062 338.640625 757.214844 340.039062 755.117188 340.738281 C 753.019531 341.515625 751.777344 341.667969 751.777344 341.589844 C 751.699219 341.4375 752.867188 341.046875 754.882812 340.117188 C 756.824219 339.183594 759.699219 337.707031 762.648438 335.144531 C 765.519531 332.660156 768.625 329.011719 770.335938 324.273438 C 772.042969 319.535156 772.273438 313.632812 770.101562 308.277344 C 769.015625 305.636719 767.382812 303.304688 765.367188 301.441406 C 763.347656 299.578125 761.09375 298.179688 758.84375 297.09375 C 754.261719 294.917969 749.605469 294.140625 745.722656 293.753906 C 741.839844 293.367188 738.65625 293.367188 736.40625 293.289062 C 734.234375 293.210938 732.992188 293.210938 732.992188 293.054688 C 732.992188 292.898438 734.234375 292.742188 736.40625 292.589844 C 738.582031 292.433594 741.839844 292.277344 745.800781 292.511719 C 749.761719 292.742188 754.574219 293.367188 759.464844 295.617188 C 761.871094 296.703125 764.355469 298.179688 766.53125 300.199219 C 768.546875 302.140625 770.410156 304.703125 771.578125 307.65625 Z M 620.570312 313.324219 C 621.269531 317.207031 621.269531 320.390625 620.804688 320.46875 C 620.335938 320.546875 619.5625 317.441406 618.863281 313.632812 C 618.164062 309.828125 617.851562 306.644531 618.320312 306.566406 C 618.863281 306.488281 619.871094 309.441406 620.570312 313.324219 Z M 846.886719 277.132812 C 847.429688 286.6875 847.039062 294.453125 846.574219 294.453125 C 846.109375 294.453125 845.71875 286.765625 845.175781 277.210938 C 844.632812 267.738281 844.089844 259.972656 844.632812 259.972656 C 845.023438 259.894531 846.339844 267.582031 846.886719 277.132812 Z M 871.808594 282.570312 C 871.960938 290.105469 871.109375 296.238281 870.640625 296.160156 C 870.175781 296.160156 870.253906 290.027344 870.019531 282.570312 C 869.945312 278.84375 869.867188 275.425781 869.789062 273.019531 C 869.789062 271.777344 869.789062 270.765625 869.789062 270.144531 C 869.867188 269.914062 869.710938 269.757812 869.632812 269.757812 C 869.632812 269.679688 869.632812 269.601562 869.789062 269.523438 C 869.867188 269.445312 870.019531 269.445312 870.175781 269.601562 C 870.332031 269.679688 870.410156 269.914062 870.488281 270.144531 C 870.640625 270.84375 870.875 271.777344 871.03125 273.019531 C 871.417969 275.347656 871.730469 278.765625 871.808594 282.570312 Z M 869.632812 269.757812 C 869.632812 269.835938 869.632812 269.835938 869.632812 269.914062 C 869.632812 269.914062 869.476562 269.757812 869.632812 269.757812 Z M 891.605469 298.414062 C 891.761719 305.402344 891.527344 311.148438 890.984375 311.148438 C 890.515625 311.148438 889.972656 305.480469 889.820312 298.492188 C 889.664062 291.5 889.894531 285.753906 890.441406 285.753906 C 890.984375 285.675781 891.449219 291.347656 891.605469 298.414062 Z M 903.792969 332.582031 C 903.328125 332.503906 904.105469 327.148438 904.726562 320.46875 C 905.035156 317.128906 905.191406 314.179688 905.5 311.925781 C 905.8125 309.671875 906.667969 308.351562 906.820312 308.507812 C 907.054688 308.585938 906.667969 309.90625 906.667969 312.003906 C 906.667969 314.179688 906.742188 317.285156 906.433594 320.625 C 905.8125 327.378906 904.257812 332.660156 903.792969 332.582031 Z M 889.585938 398.902344 C 889.972656 405.738281 890.128906 411.871094 890.050781 416.300781 C 889.972656 420.726562 889.820312 423.523438 889.585938 423.523438 C 889.121094 423.523438 888.652344 412.492188 887.878906 398.980469 C 887.101562 385.390625 886.246094 374.441406 886.714844 374.363281 C 886.945312 374.363281 887.488281 377.082031 888.03125 381.507812 C 888.652344 385.933594 889.199219 392.148438 889.585938 398.902344 Z M 866.21875 408.921875 C 866.839844 417.152344 866.992188 423.832031 866.527344 423.832031 C 866.0625 423.832031 865.128906 417.230469 864.507812 409.078125 C 863.886719 400.921875 863.734375 394.167969 864.199219 394.167969 C 864.664062 394.167969 865.597656 400.765625 866.21875 408.921875 Z M 849.371094 458.3125 C 849.835938 464.058594 849.914062 467.632812 849.679688 467.632812 C 849.445312 467.632812 848.902344 464.136719 848.128906 458.46875 C 847.429688 452.800781 846.417969 444.878906 845.332031 436.179688 C 844.246094 427.480469 843.3125 419.640625 842.613281 413.890625 C 841.917969 408.222656 841.605469 404.652344 841.839844 404.574219 C 842.070312 404.574219 842.847656 407.988281 843.78125 413.660156 C 844.789062 419.328125 845.953125 427.171875 847.039062 435.871094 C 848.128906 444.722656 848.902344 452.644531 849.371094 458.3125 Z M 798.128906 445.578125 C 798.4375 448.21875 798.59375 449.925781 798.363281 449.925781 C 798.128906 450.003906 797.585938 448.371094 796.886719 445.808594 C 796.265625 443.167969 795.566406 439.519531 794.789062 435.558594 C 794.011719 431.519531 793.316406 427.949219 792.695312 425.386719 C 792.074219 422.824219 791.683594 421.191406 791.917969 421.113281 C 792.148438 421.035156 792.925781 422.511719 793.859375 425.074219 C 794.789062 427.636719 795.722656 431.210938 796.5 435.25 C 797.273438 439.207031 797.742188 442.859375 798.128906 445.578125 Z M 589.515625 484.71875 C 592.929688 494.96875 594.792969 503.511719 594.328125 503.589844 C 593.863281 503.742188 591.300781 495.433594 587.886719 485.261719 C 584.46875 475.085938 581.597656 466.933594 582.0625 466.699219 C 582.449219 466.542969 586.097656 474.464844 589.515625 484.71875 Z M 556.90625 486.039062 C 556.132812 484.5625 555.199219 483.242188 553.722656 482.308594 C 552.328125 481.378906 550.542969 480.988281 548.832031 481.300781 C 546.816406 481.609375 545.105469 482.542969 544.019531 484.328125 C 543.164062 485.726562 542.621094 487.511719 542.390625 489.144531 C 542 492.25 543.089844 495.511719 546.039062 496.910156 C 547.511719 497.609375 549.222656 497.839844 550.851562 497.453125 C 552.636719 496.988281 554.035156 495.898438 555.042969 494.347656 C 556.519531 492.171875 557.761719 489.066406 556.828125 486.503906 C 556.984375 486.269531 556.984375 486.113281 556.90625 486.039062 Z M 550.617188 495.125 C 550.542969 495.199219 550.542969 495.125 550.617188 495.125 Z M 550.617188 495.125 C 550.617188 495.125 550.542969 495.125 550.617188 495.125 Z M 552.792969 492.171875 C 552.25 493.183594 551.628906 494.347656 550.695312 495.046875 C 550.695312 495.046875 550.695312 495.046875 550.617188 495.125 C 550.542969 495.125 550.542969 495.125 550.464844 495.199219 C 550.386719 495.199219 550.308594 495.199219 550.308594 495.199219 C 550.230469 495.199219 550.230469 495.199219 550.230469 495.199219 C 550.152344 495.199219 549.996094 495.199219 549.921875 495.199219 C 549.996094 495.199219 550.152344 495.277344 549.84375 495.199219 C 549.6875 495.199219 549.53125 495.125 549.375 495.046875 C 547.359375 494.347656 546.195312 492.171875 546.117188 490.074219 C 546.039062 488.832031 546.347656 487.511719 546.738281 486.269531 C 546.890625 485.726562 547.125 485.183594 547.4375 484.71875 C 547.589844 484.40625 547.746094 484.171875 547.980469 483.941406 C 547.980469 483.941406 548.210938 483.707031 548.132812 483.785156 C 548.132812 483.785156 548.289062 483.707031 548.367188 483.628906 C 548.367188 483.628906 548.445312 483.628906 548.445312 483.550781 C 548.601562 483.550781 548.910156 483.472656 548.601562 483.472656 C 548.988281 483.398438 548.832031 483.398438 549.300781 483.472656 C 549.6875 483.550781 550.230469 483.707031 550.695312 484.019531 C 551.164062 484.328125 551.628906 484.71875 552.015625 485.105469 C 551.9375 485.339844 551.9375 485.570312 552.171875 485.726562 C 554.113281 487.355469 553.800781 490.074219 552.792969 492.171875 Z M 573.601562 535.273438 C 573.523438 535.273438 573.367188 535.351562 573.289062 535.351562 C 571.96875 533.953125 570.183594 533.097656 568.242188 533.097656 C 565.058594 533.019531 561.644531 534.730469 560.402344 537.757812 C 559.160156 540.863281 561.175781 544.046875 563.660156 545.914062 C 566.378906 547.855469 570.417969 547.929688 573.054688 545.835938 C 574.453125 544.746094 575.386719 543.195312 575.695312 541.484375 C 576.085938 539.621094 575.851562 537.679688 575.617188 535.816406 C 575.539062 535.039062 574.066406 535.117188 573.601562 535.273438 Z M 570.105469 544.980469 C 570.183594 544.902344 570.261719 544.902344 570.105469 544.980469 Z M 571.347656 543.816406 C 571.117188 544.125 570.804688 544.515625 570.570312 544.667969 C 570.339844 544.824219 570.417969 544.824219 570.105469 544.980469 C 570.105469 544.980469 570.027344 544.980469 570.027344 544.980469 C 569.949219 544.980469 569.949219 545.058594 569.875 545.058594 C 569.875 545.058594 569.796875 545.058594 569.71875 545.058594 C 569.328125 545.136719 569.097656 545.136719 568.707031 545.058594 C 568.164062 544.980469 567.699219 544.746094 567.234375 544.515625 C 565.449219 543.503906 563.585938 541.332031 563.585938 539.15625 C 563.585938 538.070312 564.128906 536.980469 564.902344 536.203125 C 564.902344 536.203125 564.980469 536.128906 565.058594 536.128906 C 565.136719 536.050781 565.214844 535.972656 565.292969 535.972656 C 565.371094 535.894531 565.449219 535.894531 565.523438 535.816406 C 565.601562 535.816406 565.601562 535.738281 565.601562 535.738281 C 565.679688 535.660156 565.835938 535.660156 565.914062 535.582031 C 565.914062 535.582031 565.992188 535.582031 565.992188 535.582031 C 565.992188 535.582031 565.992188 535.582031 566.070312 535.582031 C 566.144531 535.582031 566.300781 535.503906 566.378906 535.503906 C 566.378906 535.503906 566.378906 535.503906 566.457031 535.503906 C 566.457031 535.503906 566.535156 535.503906 566.535156 535.503906 C 567 535.503906 567.234375 535.429688 567.777344 535.582031 C 568.242188 535.738281 568.707031 535.972656 569.175781 536.28125 C 570.027344 536.902344 570.726562 537.835938 571.039062 538.84375 C 571.191406 539.3125 571.738281 539.464844 572.28125 539.542969 C 572.359375 540.941406 572.203125 542.496094 571.347656 543.816406 Z M 639.902344 522.613281 C 640.214844 523.703125 636.640625 524.710938 636.253906 523.546875 C 632.835938 511.820312 630.042969 500.015625 627.867188 488.054688 C 626.082031 490.542969 624.140625 492.871094 622.046875 495.125 C 621.425781 495.746094 620.492188 496.054688 619.640625 496.054688 C 619.25 496.054688 618.085938 495.746094 618.707031 495.125 C 621.96875 491.707031 624.839844 487.902344 627.402344 483.941406 C 627.789062 483.320312 630.664062 482.308594 630.894531 483.472656 C 633.148438 496.597656 636.175781 509.722656 639.902344 522.613281 Z M 751.933594 490.617188 C 752.398438 491.242188 751.390625 491.785156 750.925781 491.9375 C 743.859375 494.578125 736.71875 497.21875 729.652344 499.78125 C 729.339844 499.859375 726.703125 500.480469 727.167969 499.394531 C 729.265625 494.503906 731.28125 489.609375 733.378906 484.71875 C 735.242188 480.367188 737.882812 475.476562 737.492188 470.582031 C 737.183594 467.164062 733.535156 462.660156 729.652344 464.449219 C 726.003906 466.078125 725.226562 471.515625 728.175781 474.078125 C 729.03125 474.855469 725.691406 476.175781 724.839844 475.398438 C 721.734375 472.679688 722.355469 467.863281 725.148438 465.148438 C 727.789062 462.585938 732.136719 461.496094 735.628906 462.660156 C 739.433594 463.980469 741.296875 467.554688 741.066406 471.4375 C 740.753906 476.175781 738.425781 480.601562 736.640625 484.871094 C 734.855469 488.988281 733.144531 493.183594 731.359375 497.296875 C 737.414062 495.046875 743.472656 492.792969 749.527344 490.542969 C 750.070312 490.464844 751.46875 489.996094 751.933594 490.617188 Z M 844.789062 455.441406 C 844.246094 459.011719 841.605469 461.652344 838.421875 463.207031 C 835.238281 464.679688 831.28125 465.535156 827.863281 464.679688 C 826.3125 464.292969 824.914062 463.359375 824.136719 461.886719 C 823.359375 460.332031 823.207031 458.46875 822.351562 456.992188 C 821.964844 456.371094 825.378906 455.050781 826 456.0625 C 826.855469 457.457031 827.011719 459.089844 827.632812 460.644531 C 828.253906 462.117188 829.496094 462.972656 831.046875 463.28125 C 834.074219 463.902344 837.335938 462.660156 839.355469 460.410156 C 841.371094 458.078125 841.992188 454.429688 840.441406 451.632812 C 839.433594 449.847656 836.871094 448.140625 835.007812 449.226562 C 834.695312 449.539062 834.386719 449.769531 833.996094 450.003906 C 833.453125 450.46875 832.367188 450.703125 831.667969 450.703125 C 831.28125 450.703125 830.503906 450.546875 830.96875 449.925781 C 831.433594 449.382812 831.902344 448.992188 832.523438 448.605469 C 836.25 445.265625 840.441406 440.21875 837.179688 435.25 C 835.628906 432.839844 831.746094 432.0625 829.339844 433.460938 C 826.855469 434.859375 826.777344 438.433594 828.253906 440.527344 C 828.640625 441.074219 825.300781 442.46875 824.601562 441.460938 C 822.507812 438.433594 823.980469 434.625 827.011719 432.917969 C 830.191406 431.132812 835.316406 430.355469 838.65625 432.21875 C 841.761719 433.929688 842.460938 437.886719 841.527344 441.074219 C 840.828125 443.480469 839.199219 445.5 837.335938 447.207031 C 838.578125 447.128906 839.820312 447.363281 840.90625 447.828125 C 843.933594 448.992188 845.253906 452.253906 844.789062 455.441406 Z M 645.878906 374.597656 C 646.113281 382.671875 646.890625 390.75 648.054688 398.75 C 648.289062 400.070312 644.636719 400.921875 644.40625 399.679688 C 643.394531 393.15625 642.773438 386.554688 642.386719 379.953125 C 642 380.5 641.609375 381.042969 641.222656 381.585938 C 640.757812 382.285156 639.59375 382.59375 638.816406 382.59375 C 638.273438 382.59375 637.339844 382.285156 637.882812 381.585938 C 639.359375 379.410156 640.835938 377.238281 642.308594 375.0625 C 642.773438 374.519531 645.804688 373.355469 645.878906 374.597656 Z M 680.273438 409.542969 C 679.652344 410.164062 678.566406 410.398438 677.710938 410.242188 C 672.820312 409.078125 667.929688 407.679688 663.195312 406.046875 C 662.417969 405.738281 662.339844 405.195312 662.804688 404.574219 C 665.679688 401 670.257812 397.816406 670.800781 392.925781 C 671.035156 391.058594 670.335938 388.808594 668.785156 387.644531 C 667.929688 387.023438 666.921875 386.867188 665.832031 386.945312 C 665.058594 387.023438 663.738281 387.175781 663.269531 387.875 C 662.726562 388.574219 661.796875 388.964844 660.863281 388.886719 C 660.320312 388.808594 659.3125 388.34375 659.855469 387.644531 C 661.71875 385.234375 665.679688 384.304688 668.550781 384.691406 C 671.347656 385.003906 673.519531 386.945312 674.21875 389.664062 C 675.769531 395.71875 670.257812 400.144531 666.609375 404.261719 C 670.957031 405.738281 675.382812 406.980469 679.886719 407.988281 C 680.664062 408.222656 680.738281 409 680.273438 409.542969 Z M 734.308594 409 C 734.542969 409.929688 730.972656 410.863281 730.660156 409.929688 C 728.71875 402.476562 727.089844 394.867188 725.691406 387.332031 C 724.371094 388.652344 723.050781 389.894531 721.578125 391.058594 C 720.957031 391.527344 719.792969 391.835938 719.015625 391.757812 C 718.316406 391.679688 718.238281 391.292969 718.78125 390.828125 C 721.1875 388.886719 723.363281 386.632812 725.382812 384.304688 C 725.769531 383.914062 728.640625 382.75 728.875 383.761719 C 730.351562 392.226562 732.136719 400.613281 734.308594 409 Z M 768.238281 396.574219 C 768.9375 399.523438 766.996094 402.085938 764.667969 403.640625 C 760.007812 406.902344 752.867188 407.601562 748.128906 404.105469 C 747.664062 403.71875 748.984375 403.175781 749.214844 403.175781 C 749.761719 402.941406 751.003906 402.554688 751.546875 402.941406 C 755.582031 405.894531 761.792969 405.972656 764.199219 400.921875 C 765.367188 398.515625 764.355469 395.640625 762.335938 393.933594 C 760.550781 392.457031 758.300781 392.226562 756.359375 393.078125 C 755.894531 393.390625 755.503906 393.621094 755.039062 393.855469 C 754.339844 394.246094 753.488281 394.476562 752.710938 394.554688 C 752.476562 394.554688 751.46875 394.476562 752.089844 394.011719 C 752.167969 393.933594 752.246094 393.855469 752.320312 393.855469 C 752.320312 393.855469 752.320312 393.855469 752.398438 393.855469 C 752.867188 393.546875 753.332031 393.234375 753.875 393 C 755.195312 392.070312 756.28125 390.984375 757.214844 389.664062 C 758.378906 387.953125 759.621094 385.625 759.078125 383.527344 C 758.53125 381.585938 756.28125 380.578125 754.417969 380.730469 C 752.554688 380.808594 750.925781 382.363281 749.914062 383.839844 C 749.527344 384.460938 748.441406 384.691406 747.820312 384.769531 C 747.664062 384.769531 746.035156 385.003906 746.421875 384.460938 C 748.050781 382.050781 750.613281 380.5 753.332031 379.722656 C 755.816406 379.023438 759.152344 378.710938 761.328125 380.5 C 763.890625 382.519531 762.648438 385.855469 761.25 388.1875 C 760.550781 389.273438 759.773438 390.359375 758.84375 391.214844 C 760.085938 391.058594 761.328125 390.984375 762.570312 391.214844 C 765.210938 391.757812 767.617188 393.777344 768.238281 396.574219 Z M 698.90625 320.855469 C 698.441406 318.449219 698.828125 314.722656 701.082031 311.460938 C 703.410156 308.277344 706.75 306.722656 709.234375 306.335938 C 711.71875 305.945312 713.191406 306.410156 713.191406 306.566406 C 713.191406 306.878906 711.71875 306.800781 709.542969 307.5 C 707.371094 308.121094 704.496094 309.671875 702.554688 312.46875 C 700.617188 315.265625 700.070312 318.449219 700.148438 320.703125 C 700.226562 322.953125 700.769531 324.351562 700.460938 324.507812 C 700.226562 324.585938 699.296875 323.339844 698.90625 320.855469 Z M 698.90625 320.855469 " fill-opacity="1" fill-rule="nonzero"/></g></svg>